<?xml version="1.0" encoding="UTF-8"?>
<svg width="188px" height="297px" viewBox="0 0 188 297" version="1.1" xmlns="http://www.w3.org/2000/svg" xmlns:xlink="http://www.w3.org/1999/xlink">
    <!-- Generator: Sketch 52 (66869) - http://www.bohemiancoding.com/sketch -->
    <title>tree_2</title>
    <desc>Created with Sketch.</desc>
    <g id="Page-1" stroke="none" stroke-width="1" fill="none" fill-rule="evenodd">
        <g id="Desktop" transform="translate(-717.000000, -4071.000000)" fill-rule="nonzero">
            <g id="Group-13" transform="translate(405.000000, 4070.500000)">
                <g id="Group-2" transform="translate(27.000000, 0.000000)">
                    <g id="tree_2" transform="translate(285.000000, 1.000000)">
                        <g id="tree-2">
                            <g id="tree">
                                <ellipse id="Oval" fill="#333333" opacity="0.2" cx="77.2840237" cy="285.236842" rx="73.8106509" ry="11.2030075"></ellipse>
                                <path d="M57.9210335,128.611814 C58.426396,128.357902 59.0440232,128.357902 58.7200692,124.869929 C58.5040999,122.544615 54.8451122,114.436959 47.7431061,100.546962 L60.0675254,100.546962 C65.2346841,116.810116 68.4095752,125.106688 69.5921985,125.436678 C71.3661336,125.931665 73.9684792,120.309841 75.6326947,116.401868 C76.7421717,113.796553 77.8576774,109.460512 78.9792119,103.393744 L95.598386,109.104882 C88.4551325,112.306739 83.8394897,116.426385 81.7514576,121.46382 C80.5106926,124.4572 78.8420526,129.427213 78.0483526,136.296617 C77.5063676,140.98745 76.7246521,149.1261 77.3865023,153.041556 C78.0483526,156.957013 79.2775575,161.408337 84.9925403,160.906716 C90.7075232,160.405095 98.6789201,151.890438 99.1977408,151.144751 C99.7165615,150.399064 99.2150218,147.311104 99.7165615,145.80721 C100.218101,144.303316 101.316383,144.007213 101.551598,143.484193 C101.786812,142.961173 101.846467,138.98756 100.568775,132.324145 C100.048665,129.61167 98.1091697,126.428543 96.9887888,122.085449 C96.5124624,120.238996 96.0489948,117.022855 95.598386,112.437025 L101.551598,115.224685 C103.062298,120.532106 104.305211,123.185816 105.280336,123.185816 C106.255461,123.185816 108.869843,120.532106 113.123483,115.224685 L119.331423,113.611482 C112.056151,127.391045 108.314971,134.644678 108.107883,135.37238 C107.900794,136.100082 107.900794,140.436116 108.107883,148.380481 C109.561049,148.858436 110.589612,149.02221 111.193572,148.871804 C115.550748,147.786725 116.747419,146.057769 121.059634,145.80721 C125.371849,145.55665 129.378177,147.000351 131.860427,147.000351 C134.342676,147.000351 134.342676,146.328747 139.912973,144.332162 C142.570026,143.379783 147.55324,139.414448 153.949639,136.296617 C155.645167,135.470157 158.331884,134.702702 162.009791,133.994252 L162.009791,135.788067 C153.217979,144.909648 146.577497,150.660811 142.088345,153.041556 C135.354616,156.612675 131.860427,153.041556 129.476482,153.041556 C127.092537,153.041556 117.157485,153.956675 111.193572,155.999616 C105.229658,158.042557 100.568775,160.269175 98.2365771,162.075347 C95.9043794,163.881519 92.1193734,171.377744 89.2547639,187.456768 C86.3901544,203.535792 84.9925403,231.468187 84.9925403,236.413991 C84.9925403,241.359794 88.5288937,262.899035 96.9887888,270.823017 C102.628719,276.105672 114.252598,279.268972 131.860427,280.312916 C122.589245,282.118396 115.205312,282.872454 109.708628,282.57509 C101.463602,282.129043 97.5225779,279.728627 95.598386,279.323924 C93.6741941,278.91922 89.3927413,277.630188 89.8108411,280.312916 C90.0895744,282.101402 92.262463,284.773484 96.3295069,288.329162 C92.2997122,287.478953 89.2440582,286.931549 87.1625448,286.686949 C84.0402748,286.320049 82.6982151,286.339231 81.7514576,286.031578 C80.8047001,285.723925 78.9344493,279.998216 73.2654009,279.770133 C67.5963524,279.54205 52.8884464,284.282791 50.3712703,285.101019 C47.8540942,285.919247 42.4725342,286.031578 40.7785712,284.580455 C39.0846082,283.129332 44.3369759,282.129335 46.7666853,281.671658 C49.1963946,281.213981 60.8369458,278.828017 60.0675254,276.562161 C59.2981051,274.296304 47.2395591,278.079767 43.2735323,278.651689 C39.3075054,279.223612 27.0239679,279.323924 23.3943777,279.323924 C19.7647876,279.323924 14.8010984,282.245378 13.5384615,282.57509 C12.2758247,282.904802 10.9439969,283.172268 10.9439969,282.57509 C10.9439969,281.977912 11.4487881,279.174737 13.5384615,278.079767 C15.628135,276.984797 18.5365885,274.994925 23.3943777,274.419638 C28.252167,273.844351 35.2371875,275.93229 38.2720106,274.419638 C41.3068336,272.906986 48.5320893,267.362526 52.2769436,248.009107 C56.0217979,228.655689 57.3445436,184.079071 56.4102437,178.591674 C55.4759438,173.104277 49.6344612,164.758231 43.2735323,160.269175 C39.032913,157.276471 32.4065281,155.617281 23.3943777,155.291607 L24.9694766,148.380481 C32.0409437,149.755808 36.7244647,150.677231 39.0200395,151.144751 C41.8393052,151.718926 48.935306,154.903295 51.059677,155.291607 C54.17504,155.861062 56.7285041,155.861062 58.7200692,155.291607 L58.7200692,144.332162 C53.613141,137.581053 47.952473,132.340937 41.738065,128.611814 C35.523657,124.882691 29.4090946,123.274158 23.3943777,123.786215 L24.9694766,117.332624 C29.4513455,117.779957 34.1348664,119.157022 39.0200395,121.46382 C43.0230096,123.354038 47.9124493,126.619716 53.8157965,128.611814 C55.1168181,129.050847 57.415671,128.865727 57.9210335,128.611814 Z" id="Rectangle" fill="#A2856D"></path>
                                <path d="M57.9210335,128.611814 C58.426396,128.357902 59.0440232,128.357902 58.7200692,124.869929 C58.5040999,122.544615 54.8451122,114.436959 47.7431061,100.546962 L60.0675254,100.546962 C65.2346841,116.810116 68.4095752,125.106688 69.5921985,125.436678 C71.3661336,125.931665 73.9684792,120.309841 75.6326947,116.401868 C76.7421717,113.796553 77.8576774,109.460512 78.9792119,103.393744 L95.598386,109.104882 C88.4551325,112.306739 83.8394897,116.426385 81.7514576,121.46382 C81.0482516,123.160324 79.8608509,126.830462 77.5181309,130.492622 C75.7272615,133.292125 72.8751379,135.86866 71.3499569,138.856751 C69.3075121,142.85825 73.4656844,147.369294 74.3105544,152.58838 C75.1554245,157.807465 72.3115449,165.213023 79.9726945,165.213023 C87.633844,165.213023 98.6789201,151.890438 99.1977408,151.144751 C99.7165615,150.399064 99.2150218,147.311104 99.7165615,145.80721 C100.218101,144.303316 101.316383,144.007213 101.551598,143.484193 C101.786812,142.961173 101.846467,138.98756 100.568775,132.324145 C100.048665,129.61167 98.1091697,126.428543 96.9887888,122.085449 C96.5124624,120.238996 96.0489948,117.022855 95.598386,112.437025 L101.551598,115.224685 C103.062298,120.532106 104.305211,123.185816 105.280336,123.185816 C106.255461,123.185816 108.869843,120.532106 113.123483,115.224685 L119.331423,113.611482 C112.056151,127.391045 108.314971,134.644678 108.107883,135.37238 C107.900794,136.100082 107.900794,140.436116 108.107883,148.380481 C109.561049,148.858436 110.589612,149.02221 111.193572,148.871804 C115.550748,147.786725 116.747419,146.057769 121.059634,145.80721 C125.371849,145.55665 129.378177,147.000351 131.860427,147.000351 C134.342676,147.000351 134.342676,146.328747 139.912973,144.332162 C142.570026,143.379783 147.55324,139.414448 153.949639,136.296617 C155.645167,135.470157 158.331884,134.702702 162.009791,133.994252 L162.009791,135.788067 C153.217979,144.909648 146.577497,150.660811 142.088345,153.041556 C135.354616,156.612675 131.860427,153.041556 129.476482,153.041556 C127.092537,153.041556 117.157485,153.956675 111.193572,155.999616 C105.229658,158.042557 100.568775,160.269175 98.2365771,162.075347 C96.2831753,163.58816 94.9474407,164.0702 91.7170733,174.111498 C91.4565854,174.9212 90.6168068,175.788413 89.8108411,177.298102 C88.6786239,179.418908 87.4422395,182.277271 86.4768941,183.384583 C82.9660456,187.411746 80.6921202,181.023078 79.4646994,184.941379 C76.3945015,194.742386 76.0720215,221.558962 76.0720215,224.721379 C76.0720215,227.768392 78.4070296,231.568802 79.4646994,237.065229 C80.4863094,242.374264 79.807642,249.880127 78.9792119,254.362506 C77.2695181,263.613131 78.2246206,275.179604 81.7514576,277.577815 C82.489633,278.079767 81.4476512,273.218258 83.1533016,271.307709 C84.7845563,269.480493 88.9056298,271.041822 89.8108411,271.307709 C92.5995011,272.126821 99.2494258,276.83561 105.280336,278.079767 C109.300943,278.909205 118.160973,279.653588 131.860427,280.312916 C122.589245,282.118396 115.205312,282.872454 109.708628,282.57509 C101.463602,282.129043 97.5225779,279.728627 95.598386,279.323924 C93.6741941,278.91922 89.3927413,277.630188 89.8108411,280.312916 C90.0895744,282.101402 92.262463,284.773484 96.3295069,288.329162 C92.2997122,287.478953 89.2440582,286.931549 87.1625448,286.686949 C84.0402748,286.320049 82.6982151,286.339231 81.7514576,286.031578 C80.8047001,285.723925 78.9344493,279.998216 73.2654009,279.770133 C67.5963524,279.54205 52.8884464,284.282791 50.3712703,285.101019 C47.8540942,285.919247 42.4725342,286.031578 40.7785712,284.580455 C39.0846082,283.129332 44.3369759,282.129335 46.7666853,281.671658 C49.1963946,281.213981 60.8369458,278.828017 60.0675254,276.562161 C59.2981051,274.296304 47.2395591,278.079767 43.2735323,278.651689 C39.3075054,279.223612 27.0239679,279.323924 23.3943777,279.323924 C19.7647876,279.323924 14.8010984,282.245378 13.5384615,282.57509 C12.2758247,282.904802 10.9439969,283.172268 10.9439969,282.57509 C10.9439969,281.977912 11.4487881,279.174737 13.5384615,278.079767 C15.628135,276.984797 18.5365885,274.994925 23.3943777,274.419638 C28.252167,273.844351 35.2371875,275.93229 38.2720106,274.419638 C41.3068336,272.906986 48.5320893,267.362526 52.2769436,248.009107 C56.0217979,228.655689 57.3445436,184.079071 56.4102437,178.591674 C55.4759438,173.104277 49.6344612,164.758231 43.2735323,160.269175 C39.032913,157.276471 32.4065281,155.617281 23.3943777,155.291607 L24.9694766,148.380481 C32.0409437,149.755808 36.7244647,150.677231 39.0200395,151.144751 C41.8393052,151.718926 48.935306,154.903295 51.059677,155.291607 C54.17504,155.861062 56.7285041,155.861062 58.7200692,155.291607 L58.7200692,144.332162 C53.613141,137.581053 47.952473,132.340937 41.738065,128.611814 C35.523657,124.882691 29.4090946,123.274158 23.3943777,123.786215 L24.9694766,117.332624 C29.4513455,117.779957 34.1348664,119.157022 39.0200395,121.46382 C43.0230096,123.354038 47.9124493,126.619716 53.8157965,128.611814 C55.1168181,129.050847 57.415671,128.865727 57.9210335,128.611814 Z" id="Rectangle" fill="#846C56"></path>
                                <path d="M17.5159231,132.327566 C22.4584685,132.443176 26.9867308,132.262418 31.1007099,131.785293 C37.2716787,131.069605 41.5935556,130.388879 43.8174916,137.382835 C46.0414276,144.376791 35.9841551,144.721524 34.7566625,144.721524 C33.5291699,144.721524 30.2156358,145.494215 28.8027823,146.96039 C27.86088,147.937839 27.1480711,149.990788 26.6643555,153.119236 C26.1473241,158.01216 24.2800465,160.458622 21.0625224,160.458622 C17.8449984,160.458622 14.8451304,158.371678 12.0629184,154.197791 C9.09243646,148.917113 8.09816674,144.017018 9.08010926,139.497505 C10.0620518,134.977992 12.8739897,132.588013 17.5159231,132.327566 Z" id="Rectangle" fill="#7D9661"></path>
                                <path d="M33.1572502,140.57512 C36.186847,139.925115 38.3204723,140.198328 39.460491,139.148092 C42.6136995,136.243214 42.7285619,133.958309 43.8174916,137.382835 C46.0414276,144.376791 35.9841551,144.721524 34.7566625,144.721524 C33.5291699,144.721524 30.2156358,145.494215 28.8027823,146.96039 C27.86088,147.937839 27.1480711,149.990788 26.6643555,153.119236 C26.1473241,158.01216 24.2800465,160.458622 21.0625224,160.458622 C17.8449984,160.458622 14.8451304,158.371678 12.0629184,154.197791 C12.0279508,152.399792 12.5014382,149.241037 13.4833807,144.721524 C14.9562945,137.942255 30.1276535,141.225125 33.1572502,140.57512 Z" id="Rectangle" fill="#5D6F47"></path>
                                <path d="M18.129748,96.4272847 C19.0853254,98.1456774 24.1866887,99.7870186 28.2380037,103.869051 C30.0875029,105.732574 32.1563532,108.888702 32.1563532,111.457396 C32.1563532,112.996604 31.1169964,113.671222 30.408824,115.170991 C29.9351688,116.174099 30.0041736,117.85468 29.1710595,119.268575 C28.6270587,120.19181 27.1517028,120.861164 26.3433064,121.951139 C25.0923542,123.637819 25.0923542,126.834867 22.4399253,127.947344 C21.9518353,128.152058 19.7798882,125.018455 16.3340121,121.951139 C13.9144366,119.797375 6.4265428,119.052892 3.07365483,115.170991 C0.531334211,112.227548 0.219348777,109.893679 0.219348777,99.903287 C0.219348777,89.9128955 16.0420241,92.6729791 18.129748,96.4272847 Z" id="Rectangle" fill="#7D9661"></path>
                                <path d="M9.88117517,103.073812 C12.900892,105.199994 18.3886104,104.381076 22.4399253,108.463109 C24.2894245,110.326631 32.1563532,108.888702 32.1563532,111.457396 C32.1563532,112.996604 31.1169964,113.671222 30.408824,115.170991 C29.9351688,116.174099 30.0041736,117.85468 29.1710595,119.268575 C28.6270587,120.19181 27.1517028,120.861164 26.3433064,121.951139 C25.0923542,123.637819 25.0923542,126.834867 22.4399253,127.947344 C21.9518353,128.152058 19.7798882,125.018455 16.3340121,121.951139 C13.9144366,119.797375 6.4265428,119.052892 3.07365483,115.170991 C0.531334211,112.227548 0.08331353,108.426626 0.08331353,106.28271 C0.08331353,104.138795 5.76738972,100.177297 9.88117517,103.073812 Z" id="Rectangle" fill="#5D6F47"></path>
                                <path d="M63.3911037,0.941516841 C126.280102,-3.6618444 110.633977,11.1039533 136.216043,15.5672074 C161.798109,20.0304616 176.088277,28.6392629 176.088277,45.9603557 C176.088277,63.2814485 171.385063,61.5314619 166.993975,68.295374 C163.181965,74.16729 172.565137,84.6387683 169.091515,86.7307003 C160.692898,91.788629 142.106579,93.2396905 139.257572,94.4903929 C131.726538,97.796486 133.015863,114.505453 113.199965,116.968766 C109.752103,117.39737 106.028084,118.984239 100.812116,116.968766 C94.72125,114.615228 86.9720901,108.459931 80.9920024,106.755823 C75.0405412,105.059872 63.4865169,109.740216 55.9717792,106.755823 C52.4904325,105.373245 47.8653889,101.576912 41.9044612,97.9855054 C39.0715878,96.278724 29.9561836,96.540525 24.4195472,93.0728871 C23.2601649,92.346757 18.6847293,90.1973302 17.4875191,88.1026734 C15.9961775,85.4934004 17.8141074,82.7318584 15.52486,80.1525569 C14.664458,79.1831396 0.864103512,60.9395625 4.47002492,45.9603557 C14.664458,3.61208891 33.6267793,3.12021171 63.3911037,0.941516841 Z" id="Rectangle" fill="#7D9661"></path>
                                <path d="M176.113457,43.8280278 C176.070831,50.4687498 175.630077,54.8836557 174.791195,57.0727453 C172.999901,61.7471845 168.713476,65.6467015 166.993975,68.295374 C163.181965,74.16729 172.565137,84.6387683 169.091515,86.7307003 C160.692898,91.788629 142.106579,93.2396905 139.257572,94.4903929 C131.726538,97.796486 133.015863,114.505453 113.199965,116.968766 C109.752103,117.39737 106.028084,118.984239 100.812116,116.968766 C94.72125,114.615228 86.9720901,108.459931 80.9920024,106.755823 C75.0405412,105.059872 63.4865169,109.740216 55.9717792,106.755823 C52.4904325,105.373245 47.8653889,101.576912 41.9044612,97.9855054 C39.0715878,96.278724 29.9561836,96.540525 24.4195472,93.0728871 C23.2601649,92.346757 18.6847293,90.1973302 17.4875191,88.1026734 C15.9961775,85.4934004 17.8141074,82.7318584 15.52486,80.1525569 C14.664458,79.1831396 0.864103512,60.9395625 4.47002492,45.9603557 C4.82176528,44.4992058 5.3729551,42.4175836 6.12359438,39.715489 C13.3061835,50.9656589 23.4831647,57.5923043 36.6545379,59.5954253 C44.6907047,60.8175768 71.4022606,55.4905309 96.5393978,63.4696676 C105.346673,66.2653103 112.790081,72.6726638 120.782256,78.8415441 C123.214451,80.7188702 147.069421,85.813091 158.978019,78.2198731 C161.862934,76.3803801 162.115995,72.1932703 163.029327,69.4390225 C163.412948,68.2821749 168.540811,62.2006054 170.154433,55.8736391 C170.544028,54.3460478 172.53037,50.330844 176.113457,43.8280278 Z" id="Rectangle" fill="#5D6F47"></path>
                                <path d="M160.02919,132.932394 C161.66112,130.968849 162.551402,129.98296 162.374163,127.97115 C161.86083,122.144365 162.270263,118.160684 168.274146,114.616529 C172.960475,111.850139 172.155389,120.809663 174.12347,124.883561 C175.072728,126.84851 177.162629,128.817575 180.393174,130.790756 C184.917071,133.644823 187.17902,138.218488 187.17902,144.51175 C187.17902,153.951643 181.497676,154.648616 179.05796,155.705044 C176.618244,156.761472 175.524989,152.886983 173.522673,151.619958 C170.045124,149.419435 165.422706,148.288426 163.479327,147.295732 C152.700191,141.789659 152.981311,140.796639 152.854736,139.424963 C152.387551,134.362129 158.39726,134.895939 160.02919,132.932394 Z" id="Rectangle" fill="#7D9661"></path>
                                <path d="M160.02919,132.932394 C161.66112,130.968849 162.551402,129.98296 162.374163,127.97115 C162.187069,125.847459 162.187069,123.420836 162.374163,120.69128 C165.013269,124.185562 167.556539,126.783509 170.003975,128.485122 C172.897241,130.496704 176.740429,133.63482 180.623997,136.530615 C183.648022,138.785488 187.17902,140.379129 187.17902,144.51175 C187.17902,153.951643 181.497676,154.648616 179.05796,155.705044 C176.618244,156.761472 175.524989,152.886983 173.522673,151.619958 C170.045124,149.419435 165.422706,148.288426 163.479327,147.295732 C152.700191,141.789659 152.981311,140.796639 152.854736,139.424963 C152.387551,134.362129 158.39726,134.895939 160.02919,132.932394 Z" id="Rectangle" fill="#5D6F47"></path>
                            </g>
                            <path d="M96.6738496,158.213677 C98.58306,156.100027 99.7008037,153.896664 100.027081,151.603587 C100.156333,150.695202 100.024729,149.390605 99.632269,147.689798 L98.8851334,143.452582 C101.816963,146.109691 103.283179,148.448135 103.283783,150.467916 C103.2849,154.207436 102.260549,156.789709 100.210728,158.214736 L100.221727,246.868817 C100.178344,247.838729 99.6546471,248.412203 98.6506376,248.589236 C97.6466281,248.76627 97.141273,248.165027 97.1345723,246.785507 L96.6738496,158.213677 Z" id="Rectangle" fill="#333333" transform="translate(99.978817, 196.036010) rotate(10.000000) translate(-99.978817, -196.036010) "></path>
                            <path d="M43.3804497,162.19482 C42.1640238,161.11381 41.4002395,160.196947 41.0890967,159.44423 C40.777954,158.691513 40.4600461,157.565286 40.135373,156.065549 C41.7520314,156.569091 42.7550255,157.037307 43.1443551,157.470195 C43.4461865,157.805795 43.4672606,158.273741 43.755938,158.622287 C44.1102381,159.050065 44.7052549,159.325769 44.7275544,159.296591 C46.0867368,157.518204 46.6198325,156.950088 46.8606725,154.658648 C47.0251366,153.093877 46.5865631,152.047518 45.5449521,151.519572 C44.3046645,151.003339 43.4088531,150.909185 42.8575176,151.237111 C42.5013571,151.285558 41.7827783,151.098699 40.7017811,150.676536 C40.7391583,150.66797 41.0427488,150.297396 41.6125525,149.564811 C42.467258,148.465935 43.7388213,148.194331 45.8944901,148.193939 C48.050159,148.193547 50.093218,149.942492 50.1178113,153.521372 C50.1342069,155.907292 49.1086487,158.490145 47.0411367,161.269932 L46.1403103,248.350866 C45.9372515,248.877387 45.4773519,249.102981 44.7606115,249.027649 C44.0438711,248.952316 43.535863,248.624991 43.2365872,248.045673 L43.3804497,162.19482 Z" id="Rectangle" fill="#333333" transform="translate(45.126689, 198.617866) rotate(-6.000000) translate(-45.126689, -198.617866) "></path>
                            <g id="Group-4" transform="translate(42.056213, 238.184211)">
                                <polygon id="Rectangle" fill="#C3C3C3" points="-7.99360578e-15 1.12030075 8.94674556 4.03789887 8.94674556 8.6580816 -7.99360578e-15 5.81879986"></polygon>
                                <path d="M-6.03961325e-13,1.12030075 L8.94674556,4.03789887 L59.7676456,2.26769375 L52.7846101,0.057701834 L50.7319425,0.057701834 C50.7116111,0.557742695 50.3225943,0.807763126 49.564892,0.807763126 C48.8071898,0.807763126 48.1179014,0.600620655 47.4970269,0.186335714 L8.42308481,0.938403394 C8.67159776,1.67800137 8.28579842,2.04780035 7.26568679,2.04780035 C6.24557516,2.04780035 5.64175788,1.70276993 5.45423496,1.01270907 L-6.03961325e-13,1.12030075 Z" id="Rectangle" fill="#FFFFFF"></path>
                                <polygon id="Rectangle" fill="#A5A5A5" points="8.94674556 4.03789887 59.7344801 2.24260396 59.7344801 6.91676944 8.94674556 8.6580816"></polygon>
                            </g>
                        </g>
                        <polygon id="Line-2" stroke="#333333" stroke-width="2" stroke-linecap="square" points="42.9699634 238.303538 94.4161064 237 102 239.242444 102 245.279846 50.9534678 247 41 244.229588 41 238.303538"></polygon>
                    </g>
                </g>
            </g>
        </g>
    </g>
</svg>