<?xml version="1.0" encoding="UTF-8"?>
<svg width="189px" height="298px" viewBox="0 0 189 298" version="1.1" xmlns="http://www.w3.org/2000/svg" xmlns:xlink="http://www.w3.org/1999/xlink">
    <!-- Generator: Sketch 52 (66869) - http://www.bohemiancoding.com/sketch -->
    <title>tree_1</title>
    <desc>Created with Sketch.</desc>
    <g id="Page-1" stroke="none" stroke-width="1" fill="none" fill-rule="evenodd">
        <g id="Desktop" transform="translate(-432.000000, -4070.000000)" fill-rule="nonzero">
            <g id="Group-13" transform="translate(405.000000, 4070.500000)">
                <g id="Group-2" transform="translate(27.000000, 0.000000)">
                    <g id="tree_1">
                        <g id="tree-1">
                            <g id="tree">
                                <path d="M121.800396,277.156786 C124.912005,277.017599 128.16997,276.943662 131.525312,276.943662 C153.415904,276.943662 171.161736,280.090698 171.161736,283.972763 C171.161736,286.93065 160.859446,289.461817 146.271162,290.499339 C135.122978,294.572772 108.619364,297.43797 77.6982249,297.43797 C36.7180428,297.43797 3.49704142,292.405381 3.49704142,286.197368 C3.49704142,279.989356 36.7180428,274.956767 77.6982249,274.956767 C94.2150738,274.956767 109.471482,275.774286 121.800396,277.156786 Z" id="Combined-Shape" fill="#333333" opacity="0.200730097"></path>
                                <path d="M58.232785,129.046753 C58.7408214,128.791988 59.3617164,128.791988 59.0360484,125.292312 C58.8189364,122.959194 55.140589,114.824331 48.0010061,100.887724 L60.390634,100.887724 C65.5851322,117.205452 68.7768216,125.529865 69.9657022,125.860963 C71.7490232,126.35761 74.3651378,120.716921 76.0381587,116.795834 C77.1535059,114.181776 78.2749138,109.831185 79.4023823,103.744059 L96.1094886,109.474362 C88.9284401,112.686963 84.2883759,116.820433 82.189296,121.874772 C80.9419661,124.878197 79.2644973,129.864888 78.4665978,136.757344 C77.9217453,141.463918 77.1358936,149.629879 77.8012457,153.558474 C78.4665978,157.48707 79.7023065,161.953332 85.4475273,161.450027 C91.1927482,160.946722 99.2063218,152.403493 99.7278875,151.655304 C100.249453,150.907114 99.74526,147.808792 100.249453,146.299851 C100.753647,144.790911 101.85774,144.493815 102.094199,143.96904 C102.330658,143.444264 102.390628,139.457317 101.106176,132.771542 C100.583314,130.049964 98.6335568,126.856156 97.507248,122.498487 C97.0284013,120.645838 96.5624815,117.418905 96.1094886,112.817686 L102.094199,115.614701 C103.612893,120.939931 104.862382,123.602547 105.842666,123.602547 C106.82295,123.602547 109.451165,120.939931 113.72731,115.614701 L119.968097,113.996084 C112.654332,127.821888 108.893357,135.099862 108.685173,135.830006 C108.476989,136.56015 108.476989,140.910734 108.685173,148.881758 C110.146028,149.361316 111.180033,149.52564 111.787189,149.37473 C116.167419,148.286009 117.370421,146.551251 121.705452,146.299851 C126.040483,146.048451 130.068009,147.496996 132.563392,147.496996 C135.058775,147.496996 135.058775,146.823139 140.658544,144.819853 C143.329655,143.864279 148.339236,139.885637 154.769478,136.757344 C156.473977,135.928111 159.17491,135.15808 162.872277,134.447253 L162.872277,136.247088 C154.033947,145.399277 147.35833,151.169739 142.845426,153.558474 C136.076069,157.141577 132.563392,153.558474 130.166834,153.558474 C127.770275,153.558474 117.782657,154.476664 111.787189,156.52646 C105.79172,158.576257 101.106176,160.810346 98.7616383,162.622579 C96.417101,164.434812 92.6120685,171.956192 89.7323023,188.089173 C86.8525362,204.222154 85.4475273,232.248282 85.4475273,237.210682 C85.4475273,242.173082 89.0025916,263.784602 97.507248,271.735175 C103.177019,277.035557 114.8624,280.209472 132.563392,281.256919 C123.243156,283.068458 115.820155,283.825046 110.294388,283.526684 C102.005738,283.079141 98.0438614,280.67067 96.1094886,280.264608 C94.1751158,279.858546 89.8710097,278.565188 90.2913218,281.256919 C90.5715298,283.051406 92.7559152,285.732455 96.8444779,289.300065 C92.7933615,288.447003 89.7215399,287.897762 87.6290133,287.652342 C84.4902233,287.284211 83.1410628,287.303457 82.189296,286.994772 C81.2375292,286.686086 79.3573829,280.941163 73.6583395,280.712315 C67.9592961,280.483467 53.1735705,285.240115 50.643076,286.06109 C48.1125815,286.882064 42.7025476,286.994772 40.9996218,285.538779 C39.2966961,284.082787 44.5768541,283.079434 47.0194191,282.620221 C49.461984,282.161008 61.1641254,279.767038 60.390634,277.493578 C59.6171427,275.220117 47.4947949,279.016276 43.5077838,279.590118 C39.5207726,280.16396 27.1722428,280.264608 23.5234485,280.264608 C19.8746542,280.264608 14.8847021,283.195866 13.6153846,283.526684 C12.3460671,283.857503 11.0071926,284.125866 11.0071926,283.526684 C11.0071926,282.927502 11.5146547,280.11492 13.6153846,279.016276 C15.7161145,277.917632 18.6399567,275.921083 23.5234485,275.343865 C28.4069404,274.766648 35.4289187,276.861593 38.479799,275.343865 C41.5306793,273.826137 48.7941638,268.263071 52.5588321,248.844708 C56.3235005,229.426345 57.6532449,184.700141 56.7140016,179.19433 C55.7747583,173.688519 49.9023684,165.314466 43.5077838,160.810346 C39.2447273,157.8076 32.5832822,156.142843 23.5234485,155.816075 L25.1068812,148.881758 C32.2157635,150.2617 36.924065,151.186215 39.2317857,151.655304 C42.0659682,152.231405 49.1995139,155.42646 51.335125,155.816075 C54.4669714,156.387441 57.0339459,156.387441 59.0360484,155.816075 L59.0360484,144.819853 C53.9020995,138.04609 48.2114808,132.78839 41.9641923,129.046753 C35.7169038,125.305116 29.5699892,123.691186 23.5234485,124.204961 L25.1068812,117.729714 C29.6124637,118.178547 34.3207652,119.560234 39.2317857,121.874772 C43.2559355,123.771333 48.1712454,127.047971 54.1058271,129.046753 C55.4137325,129.487259 57.7247487,129.301518 58.232785,129.046753 Z" id="Rectangle" fill="#A2856D"></path>
                                <path d="M58.232785,129.046753 C58.7408214,128.791988 59.3617164,128.791988 59.0360484,125.292312 C58.8189364,122.959194 55.140589,114.824331 48.0010061,100.887724 L60.390634,100.887724 C65.5851322,117.205452 68.7768216,125.529865 69.9657022,125.860963 C71.7490232,126.35761 74.3651378,120.716921 76.0381587,116.795834 C77.1535059,114.181776 78.2749138,109.831185 79.4023823,103.744059 L96.1094886,109.474362 C88.9284401,112.686963 84.2883759,116.820433 82.189296,121.874772 C81.4823693,123.576969 80.2886861,127.259423 77.9335707,130.933873 C76.1332258,133.742769 73.2660116,136.327951 71.7327609,139.326069 C69.6795096,143.340996 73.8596827,147.867178 74.709023,153.103777 C75.5583632,158.340376 72.6994367,165.770785 80.4011214,165.770785 C88.1028062,165.770785 99.2063218,152.403493 99.7278875,151.655304 C100.249453,150.907114 99.74526,147.808792 100.249453,146.299851 C100.753647,144.790911 101.85774,144.493815 102.094199,143.96904 C102.330658,143.444264 102.390628,139.457317 101.106176,132.771542 C100.583314,130.049964 98.6335568,126.856156 97.507248,122.498487 C97.0284013,120.645838 96.5624815,117.418905 96.1094886,112.817686 L102.094199,115.614701 C103.612893,120.939931 104.862382,123.602547 105.842666,123.602547 C106.82295,123.602547 109.451165,120.939931 113.72731,115.614701 L119.968097,113.996084 C112.654332,127.821888 108.893357,135.099862 108.685173,135.830006 C108.476989,136.56015 108.476989,140.910734 108.685173,148.881758 C110.146028,149.361316 111.180033,149.52564 111.787189,149.37473 C116.167419,148.286009 117.370421,146.551251 121.705452,146.299851 C126.040483,146.048451 130.068009,147.496996 132.563392,147.496996 C135.058775,147.496996 135.058775,146.823139 140.658544,144.819853 C143.329655,143.864279 148.339236,139.885637 154.769478,136.757344 C156.473977,135.928111 159.17491,135.15808 162.872277,134.447253 L162.872277,136.247088 C154.033947,145.399277 147.35833,151.169739 142.845426,153.558474 C136.076069,157.141577 132.563392,153.558474 130.166834,153.558474 C127.770275,153.558474 117.782657,154.476664 111.787189,156.52646 C105.79172,158.576257 101.106176,160.810346 98.7616383,162.622579 C96.7979011,164.140469 95.4550992,164.624127 92.2076398,174.69912 C91.9457737,175.51154 91.1015518,176.381662 90.2913218,177.896418 C89.153114,180.02434 87.9101879,182.892296 86.9397348,184.003323 C83.4103104,188.044 81.1243536,181.633893 79.8904386,185.565343 C76.8039962,195.39924 76.47981,222.305804 76.47981,225.478833 C76.47981,228.536071 78.8271727,232.349234 79.8904386,237.864106 C80.9174539,243.190956 80.2351956,250.722006 79.4023823,255.219427 C77.6836426,264.501095 78.6437985,276.106381 82.189296,278.51264 C82.9313771,279.016276 81.8838822,274.138453 83.5985571,272.221493 C85.2384429,270.388146 89.3813209,271.954714 90.2913218,272.221493 C93.0947365,273.043354 99.779846,277.767944 105.842666,279.016276 C109.884546,279.848497 118.791455,280.595378 132.563392,281.256919 C123.243156,283.068458 115.820155,283.825046 110.294388,283.526684 C102.005738,283.079141 98.0438614,280.67067 96.1094886,280.264608 C94.1751158,279.858546 89.8710097,278.565188 90.2913218,281.256919 C90.5715298,283.051406 92.7559152,285.732455 96.8444779,289.300065 C92.7933615,288.447003 89.7215399,287.897762 87.6290133,287.652342 C84.4902233,287.284211 83.1410628,287.303457 82.189296,286.994772 C81.2375292,286.686086 79.3573829,280.941163 73.6583395,280.712315 C67.9592961,280.483467 53.1735705,285.240115 50.643076,286.06109 C48.1125815,286.882064 42.7025476,286.994772 40.9996218,285.538779 C39.2966961,284.082787 44.5768541,283.079434 47.0194191,282.620221 C49.461984,282.161008 61.1641254,279.767038 60.390634,277.493578 C59.6171427,275.220117 47.4947949,279.016276 43.5077838,279.590118 C39.5207726,280.16396 27.1722428,280.264608 23.5234485,280.264608 C19.8746542,280.264608 14.8847021,283.195866 13.6153846,283.526684 C12.3460671,283.857503 11.0071926,284.125866 11.0071926,283.526684 C11.0071926,282.927502 11.5146547,280.11492 13.6153846,279.016276 C15.7161145,277.917632 18.6399567,275.921083 23.5234485,275.343865 C28.4069404,274.766648 35.4289187,276.861593 38.479799,275.343865 C41.5306793,273.826137 48.7941638,268.263071 52.5588321,248.844708 C56.3235005,229.426345 57.6532449,184.700141 56.7140016,179.19433 C55.7747583,173.688519 49.9023684,165.314466 43.5077838,160.810346 C39.2447273,157.8076 32.5832822,156.142843 23.5234485,155.816075 L25.1068812,148.881758 C32.2157635,150.2617 36.924065,151.186215 39.2317857,151.655304 C42.0659682,152.231405 49.1995139,155.42646 51.335125,155.816075 C54.4669714,156.387441 57.0339459,156.387441 59.0360484,155.816075 L59.0360484,144.819853 C53.9020995,138.04609 48.2114808,132.78839 41.9641923,129.046753 C35.7169038,125.305116 29.5699892,123.691186 23.5234485,124.204961 L25.1068812,117.729714 C29.6124637,118.178547 34.3207652,119.560234 39.2317857,121.874772 C43.2559355,123.771333 48.1712454,127.047971 54.1058271,129.046753 C55.4137325,129.487259 57.7247487,129.301518 58.232785,129.046753 Z" id="Rectangle" fill="#846C56"></path>
                                <path d="M17.613891,132.774974 C22.5825874,132.890972 27.1348087,132.709608 31.270555,132.230881 C37.4741743,131.512791 41.8189183,130.829781 44.0546212,137.847207 C46.2903241,144.864633 36.1798385,145.210523 34.9458512,145.210523 C33.7118639,145.210523 30.3807979,145.985806 28.960469,147.456901 C28.0135831,148.437631 27.2970026,150.497469 26.8107277,153.636415 C26.2909608,158.545758 24.4138033,161.000429 21.1792553,161.000429 C17.9447074,161.000429 14.928967,158.906482 12.1320344,154.718589 C9.1458356,149.42019 8.14630519,144.503652 9.13344317,139.968973 C10.1205811,135.434294 12.9473971,133.036294 17.613891,132.774974 Z" id="Rectangle" fill="#7D9661"></path>
                                <path d="M33.3379764,141.050204 C36.3836028,140.398018 38.5285171,140.672148 39.6745676,139.618388 C42.8444598,136.703762 42.9599299,134.411189 44.0546212,137.847207 C46.2903241,144.864633 36.1798385,145.210523 34.9458512,145.210523 C33.7118639,145.210523 30.3807979,145.985806 28.960469,147.456901 C28.0135831,148.437631 27.2970026,150.497469 26.8107277,153.636415 C26.2909608,158.545758 24.4138033,161.000429 21.1792553,161.000429 C17.9447074,161.000429 14.928967,158.906482 12.1320344,154.718589 C12.0968817,152.914557 12.5728744,149.745201 13.5600124,145.210523 C15.0407193,138.408504 30.29235,141.70239 33.3379764,141.050204 Z" id="Rectangle" fill="#5D6F47"></path>
                                <path d="M18.2309636,96.7542219 C19.191597,98.4783811 24.3199516,100.12523 28.3927021,104.220961 C30.251987,106.090737 32.3317837,109.257456 32.3317837,111.83477 C32.3317837,113.379143 31.2869276,114.056025 30.5750082,115.560827 C30.098847,116.567301 30.1682169,118.253521 29.3306948,119.67216 C28.7838156,120.598494 27.3006536,121.270094 26.48798,122.363726 C25.230409,124.056067 25.230409,127.263843 22.5639461,128.380053 C22.0732735,128.585454 19.8898347,125.441336 16.4257264,122.363726 C13.993349,120.202735 6.46583668,119.455754 3.09520855,115.560827 C0.539436509,112.607506 0.225800357,110.265805 0.225800357,100.241889 C0.225800357,90.2179723 16.1321935,92.9873179 18.2309636,96.7542219 Z" id="Rectangle" fill="#7D9661"></path>
                                <path d="M9.93874752,103.423053 C12.9744417,105.55637 18.4911956,104.734704 22.5639461,108.830434 C24.423231,110.70021 32.3317837,109.257456 32.3317837,111.83477 C32.3317837,113.379143 31.2869276,114.056025 30.5750082,115.560827 C30.098847,116.567301 30.1682169,118.253521 29.3306948,119.67216 C28.7838156,120.598494 27.3006536,121.270094 26.48798,122.363726 C25.230409,124.056067 25.230409,127.263843 22.5639461,128.380053 C22.0732735,128.585454 19.8898347,125.441336 16.4257264,122.363726 C13.993349,120.202735 6.46583668,119.455754 3.09520855,115.560827 C0.539436509,112.607506 0.0890453476,108.793829 0.0890453476,106.642719 C0.0890453476,104.49161 5.80319601,100.516818 9.93874752,103.423053 Z" id="Rectangle" fill="#5D6F47"></path>
                                <path d="M63.7317974,0.948031998 C126.953541,-3.67077677 111.224633,11.1445706 136.942054,15.6228021 C162.659475,20.1010336 177.025252,28.7387235 177.025252,46.1179408 C177.025252,63.4971581 172.297153,61.741299 167.882832,68.5279088 C164.050653,74.4195292 173.483471,84.9261467 169.99147,87.0250986 C161.548416,92.1000002 142.863757,93.5559311 139.999676,94.8108304 C132.428795,98.1280178 133.724942,114.893055 113.804198,117.364635 C110.338093,117.794676 106.59437,119.386871 101.350805,117.364635 C95.2277116,115.003199 87.4375509,108.827246 81.4258225,107.117419 C75.4428721,105.415778 63.8277154,110.111827 56.2732172,107.117419 C52.7734507,105.730202 48.1239359,101.92113 42.1314689,98.3176715 C39.2836068,96.6051626 30.1199729,96.8678422 24.5540422,93.3885679 C23.3885255,92.6600011 18.7888813,90.5033615 17.5853366,88.4016757 C16.0861044,85.7836467 17.913653,83.0128378 15.6122931,80.424881 C14.7473388,79.4522106 0.873966494,61.1474134 4.49896685,46.1179408 C14.7473388,3.62756572 33.8099898,3.13403792 63.7317974,0.948031998 Z" id="Rectangle" fill="#7D9661"></path>
                                <path d="M177.050566,43.9784574 C177.007714,50.6414638 176.564628,55.0711847 175.721307,57.2676202 C173.920535,61.9577456 169.611431,65.8703482 167.882832,68.5279088 C164.050653,74.4195292 173.483471,84.9261467 169.99147,87.0250986 C161.548416,92.1000002 142.863757,93.5559311 139.999676,94.8108304 C132.428795,98.1280178 133.724942,114.893055 113.804198,117.364635 C110.338093,117.794676 106.59437,119.386871 101.350805,117.364635 C95.2277116,115.003199 87.4375509,108.827246 81.4258225,107.117419 C75.4428721,105.415778 63.8277154,110.111827 56.2732172,107.117419 C52.7734507,105.730202 48.1239359,101.92113 42.1314689,98.3176715 C39.2836068,96.6051626 30.1199729,96.8678422 24.5540422,93.3885679 C23.3885255,92.6600011 18.7888813,90.5033615 17.5853366,88.4016757 C16.0861044,85.7836467 17.913653,83.0128378 15.6122931,80.424881 C14.7473388,79.4522106 0.873966494,61.1474134 4.49896685,46.1179408 C4.85256827,44.6518877 5.40667444,42.5632802 6.16128535,39.8521182 C13.3818776,51.1400403 23.6127052,57.7889228 36.8537683,59.7987656 C44.9324544,61.0250183 71.7853413,55.6800965 97.0554792,63.6860087 C105.909354,66.4910328 113.392145,72.9198875 121.426607,79.1094688 C123.87167,80.9930946 147.852857,86.1044101 159.824464,78.4857116 C162.724643,76.6400458 162.979042,72.4388853 163.897207,69.6753951 C164.282858,68.5146654 169.437853,62.4126879 171.060012,56.0644902 C171.451669,54.5317728 173.44852,50.5030952 177.050566,43.9784574 Z" id="Rectangle" fill="#5D6F47"></path>
                                <path d="M160.881196,133.381832 C162.521761,131.411698 163.416753,130.4225 163.238577,128.403939 C162.722528,122.557601 163.134127,118.560552 169.169777,115.004504 C173.880901,112.228831 173.071555,121.218421 175.050049,125.30599 C176.00433,127.277532 178.105289,129.253205 181.352926,131.233006 C185.90076,134.096652 188.174677,138.685664 188.174677,145.000045 C188.174677,154.471615 182.463272,155.170926 180.010647,156.2309 C177.558023,157.290873 176.458984,153.403382 174.446074,152.132106 C170.950125,149.924199 166.303249,148.789394 164.349588,147.793368 C153.51342,142.268819 153.796027,141.272466 153.668783,139.896188 C153.199125,134.816364 159.240632,135.351966 160.881196,133.381832 Z" id="Rectangle" fill="#7D9661"></path>
                                <path d="M160.881196,133.381832 C162.521761,131.411698 163.416753,130.4225 163.238577,128.403939 C163.050492,126.273122 163.050492,123.838355 163.238577,121.09964 C165.891646,124.605648 168.448373,127.212313 170.908757,128.919635 C173.817332,130.937968 177.680854,134.086615 181.584971,136.992127 C184.624995,139.254567 188.174677,140.853555 188.174677,145.000045 C188.174677,154.471615 182.463272,155.170926 180.010647,156.2309 C177.558023,157.290873 176.458984,153.403382 174.446074,152.132106 C170.950125,149.924199 166.303249,148.789394 164.349588,147.793368 C153.51342,142.268819 153.796027,141.272466 153.668783,139.896188 C153.199125,134.816364 159.240632,135.351966 160.881196,133.381832 Z" id="Rectangle" fill="#5D6F47"></path>
                            </g>
                            <path d="M106.366864,158.616541 C108.28671,156.495113 109.41097,154.283903 109.739645,151.982913 C110.06832,149.681922 109.50619,148.247646 108.053254,147.680083 L108.053254,144.249667 C111.36025,144.892552 113.013747,147.090127 113.013747,150.842393 C113.013747,154.594658 111.983254,157.186041 109.922268,158.616541 L109.739645,265.402256 C109.739645,266.025287 109.177515,266.336802 108.053254,266.336802 C106.928994,266.336802 106.366864,266.025287 106.366864,265.402256 L106.366864,158.616541 Z" id="Rectangle" fill="#333333"></path>
                            <path d="M147.964497,150.74812 C149.884343,148.626692 151.008603,146.415482 151.337278,144.114492 C151.665953,141.813501 151.103823,140.379225 149.650888,139.811662 C149.080809,139.658606 148.518679,139.746543 147.964497,140.075475 C147.410315,140.404407 146.320385,141.370573 144.694707,142.973972 C145.087334,140.362308 145.569985,138.689 146.142659,137.954047 C147.00167,136.851618 147.483855,136.381246 149.650888,136.381246 C151.817921,136.381246 154.61138,137.345573 154.61138,142.973972 C154.61138,146.726237 153.580887,149.31762 151.519901,150.74812 L151.337278,263.116218 C151.337278,263.802203 150.775148,264.145195 149.650888,264.145195 C148.526627,264.145195 147.964497,263.802203 147.964497,263.116218 L147.964497,150.74812 Z" id="Rectangle" fill="#333333"></path>
                            <g id="Group-4" transform="translate(100.183432, 212.571429)">
                                <polygon id="Rectangle" fill="#C3C3C3" points="-7.99360578e-15 1.12406015 8.99408284 4.05144887 8.99408284 8.68713557 -7.99360578e-15 5.83832603"></polygon>
                                <path d="M-6.03961325e-13,1.12406015 L8.99408284,4.05144887 L60.0838765,2.27530346 L53.0638937,0.0578954643 L50.6617686,0.106159187 C50.523652,0.657778911 50.1204825,0.933588774 49.4522602,0.933588774 C48.784038,0.933588774 48.3456599,0.674687363 48.1371259,0.156884542 L9.47991716,0.933588774 C9.30864193,1.6809777 8.74784279,2.05467217 7.79751974,2.05467217 C6.84719669,2.05467217 6.29775199,1.70328482 6.14918564,1.00051014 L-6.03961325e-13,1.12406015 Z" id="Rectangle" fill="#FFFFFF"></path>
                                <polygon id="Rectangle" fill="#A5A5A5" points="8.99408284 4.05144887 60.0505355 2.25012947 60.0505355 6.93998008 8.99408284 8.68713557"></polygon>
                            </g>
                            <g id="Group-4" transform="translate(100.183432, 236.176692)">
                                <polygon id="Rectangle" fill="#C3C3C3" points="-7.99360578e-15 1.12406015 8.99408284 4.05144887 8.99408284 8.68713557 -7.99360578e-15 5.83832603"></polygon>
                                <path d="M-6.03961325e-13,1.12406015 L8.99408284,4.05144887 L60.0838765,2.27530346 L53.0638937,0.0578954643 L50.6617686,0.106159187 C50.523652,0.657778911 50.1204825,0.933588774 49.4522602,0.933588774 C48.784038,0.933588774 48.3456599,0.674687363 48.1371259,0.156884542 L9.47991716,0.933588774 C9.30864193,1.6809777 8.74784279,2.05467217 7.79751974,2.05467217 C6.84719669,2.05467217 6.29775199,1.70328482 6.14918564,1.00051014 L-6.03961325e-13,1.12406015 Z" id="Rectangle" fill="#FFFFFF"></path>
                                <polygon id="Rectangle" fill="#A5A5A5" points="8.99408284 4.05144887 60.0505355 2.25012947 60.0505355 6.93998008 8.99408284 8.68713557"></polygon>
                            </g>
                            <g id="Group-4" transform="translate(100.183432, 255.285714)">
                                <polygon id="Rectangle" fill="#C3C3C3" points="-7.99360578e-15 1.12406015 8.99408284 4.05144887 8.99408284 8.68713557 -7.99360578e-15 5.83832603"></polygon>
                                <path d="M-6.03961325e-13,1.12406015 L8.99408284,4.05144887 L60.0838765,2.27530346 L53.0638937,0.0578954643 L50.6617686,0.106159187 C50.523652,0.657778911 50.1204825,0.933588774 49.4522602,0.933588774 C48.784038,0.933588774 48.3456599,0.674687363 48.1371259,0.156884542 L9.47991716,0.933588774 C9.30864193,1.6809777 8.74784279,2.05467217 7.79751974,2.05467217 C6.84719669,2.05467217 6.29775199,1.70328482 6.14918564,1.00051014 L-6.03961325e-13,1.12406015 Z" id="Rectangle" fill="#FFFFFF"></path>
                                <polygon id="Rectangle" fill="#A5A5A5" points="8.99408284 4.05144887 60.0505355 2.25012947 60.0505355 6.93998008 8.99408284 8.68713557"></polygon>
                            </g>
                        </g>
                        <polygon id="Line-2" stroke="#333333" stroke-width="2" stroke-linecap="square" points="101.969963 213.303538 153.416106 212 161 214.242444 161 220.279846 109.953468 222 100 219.229588 100 213.303538"></polygon>
                        <polygon id="Line-2" stroke="#333333" stroke-width="2" stroke-linecap="square" points="101.969963 236.303538 153.416106 235 161 237.242444 161 243.279846 109.953468 245 100 242.229588 100 236.303538"></polygon>
                        <polygon id="Line-2" stroke="#333333" stroke-width="2" stroke-linecap="square" points="101.969963 256.303538 153.416106 255 161 257.242444 161 263.279846 109.953468 265 100 262.229588 100 256.303538"></polygon>
                    </g>
                </g>
            </g>
        </g>
    </g>
</svg>