<?xml version="1.0" encoding="UTF-8"?>
<svg width="185px" height="293px" viewBox="0 0 185 293" version="1.1" xmlns="http://www.w3.org/2000/svg" xmlns:xlink="http://www.w3.org/1999/xlink">
    <!-- Generator: Sketch 52 (66869) - http://www.bohemiancoding.com/sketch -->
    <title>tree_4</title>
    <desc>Created with Sketch.</desc>
    <g id="Page-1" stroke="none" stroke-width="1" fill="none" fill-rule="evenodd">
        <g id="Desktop" transform="translate(-1245.000000, -4072.000000)" fill-rule="nonzero">
            <g id="Group-13" transform="translate(405.000000, 4070.500000)">
                <g id="Group-2" transform="translate(27.000000, 0.000000)">
                    <g id="tree_4" transform="translate(813.000000, 2.000000)">
                        <g id="tree">
                            <path d="M102.855483,270.653024 C105.969067,269.560887 114.721106,268.774212 125.031148,268.774212 C137.949122,268.774212 148.421208,270.009202 148.421208,271.532639 C148.421208,272.713602 142.128225,273.721229 133.281169,274.114583 C142.939153,275.987945 148.696386,278.347503 148.696386,280.911293 C148.696386,287.005043 116.171316,291.945003 76.0496102,291.945003 C35.9279041,291.945003 3.40283487,287.005043 3.40283487,280.911293 C3.40283487,274.817543 35.9279041,269.877583 76.0496102,269.877583 C85.5170685,269.877583 94.5615375,270.152645 102.855483,270.653024 Z" id="Combined-Shape" fill="#333333" opacity="0.2"></path>
                            <path d="M56.9919434,126.653149 C57.4893371,126.403073 58.0972253,126.403073 57.7783795,122.96781 C57.5658157,120.677635 53.9645244,112.692501 46.9745055,99.0124067 L59.1045885,99.0124067 C64.1902694,115.029795 67.3150975,123.200991 68.4790728,123.525995 C70.2250358,124.013501 72.7863466,118.476633 74.4243201,114.627716 C75.5163024,112.061772 76.6142184,107.791256 77.718068,101.816169 L94.0751844,107.441001 C87.0445686,110.594472 82.5017071,114.651862 80.4465999,119.613173 C79.2253998,122.561318 77.5830715,127.456225 76.8018869,134.221821 C76.2684482,138.841766 75.499059,146.857427 76.1504729,150.713714 C76.8018869,154.57 78.0117092,158.954058 83.6365759,158.460017 C89.2614427,157.965976 97.1071434,149.57999 97.6177831,148.845572 C98.1284229,148.111154 97.6347916,145.069858 98.1284229,143.588691 C98.6220541,142.107523 99.7030179,141.815896 99.9345234,141.300779 C100.166029,140.785663 100.224743,136.872099 98.9671981,130.30938 C98.4552894,127.637894 96.5463771,124.502871 95.4436628,120.225408 C94.9748473,118.406859 94.5186878,115.239319 94.0751844,110.722789 L99.9345234,113.468323 C101.421403,118.695539 102.644717,121.309146 103.604466,121.309146 C104.564215,121.309146 107.137372,118.695539 111.323938,113.468323 L117.433989,111.879498 C110.273437,125.450828 106.591249,132.594845 106.387426,133.31155 C106.183604,134.028255 106.183604,138.298764 106.387426,146.123075 C107.817678,146.593807 108.830023,146.755107 109.424459,146.606974 C113.71293,145.538292 114.890731,143.835463 119.13495,143.588691 C123.379168,143.341918 127.322322,144.763802 129.765431,144.763802 C132.208539,144.763802 132.208539,144.102347 137.691002,142.135933 C140.306157,141.197947 145.210793,137.292535 151.506331,134.221821 C153.175124,133.40785 155.819476,132.651992 159.439388,131.954248 L159.439388,133.720956 C150.786209,142.704692 144.250437,148.368945 139.832071,150.713714 C133.204523,154.230866 129.765431,150.713714 127.419077,150.713714 C125.072723,150.713714 115.294331,151.615003 109.424459,153.627072 C103.554587,155.63914 98.9671981,157.83211 96.6717754,159.610987 C94.3763528,161.389865 90.6510303,168.772808 87.8315911,184.60885 C85.0121519,200.444891 83.6365759,227.955178 83.6365759,232.826242 C83.6365759,237.697305 87.1171667,258.91105 95.4436628,266.715287 C100.99466,271.918111 112.435249,275.033608 129.765431,276.061776 C120.640441,277.839972 113.372941,278.582635 107.962931,278.289764 C99.8479155,277.850458 95.9690349,275.486317 94.0751844,275.087729 C92.181334,274.689141 87.9673927,273.419589 88.3788998,276.061776 C88.6532379,277.823234 90.7918636,280.454936 94.7947767,283.956882 C90.8285254,283.119522 87.8210541,282.58039 85.7723629,282.339486 C82.6993261,281.978131 81.3784285,281.997023 80.4465999,281.694019 C79.5147712,281.391015 77.6740113,275.751831 72.0943546,275.527195 C66.514698,275.302559 52.0387121,279.971659 49.5612278,280.777522 C47.0837435,281.583386 41.7870421,281.694019 40.1197902,280.264825 C38.4525382,278.835631 43.6220845,277.850746 46.0134813,277.399985 C48.404878,276.949225 59.8618764,274.599317 59.1045885,272.367701 C58.3473007,270.136086 46.4788987,273.862374 42.5754097,274.425654 C38.6719207,274.988933 26.5820749,275.087729 23.0097175,275.087729 C19.4373602,275.087729 14.5519404,277.965035 13.3092133,278.289764 C12.0664862,278.614494 10.7556592,278.877918 10.7556592,278.289764 C10.7556592,277.701611 11.2524907,274.940797 13.3092133,273.862374 C15.365936,272.783951 18.2285278,270.824149 23.0097175,270.257556 C27.7909072,269.690963 34.6657852,271.747349 37.652754,270.257556 C40.6397227,268.767763 47.7510477,263.307089 51.4368516,244.246135 C55.1226556,225.185181 56.4245437,181.282196 55.5049762,175.877723 C54.5854087,170.47325 48.836037,162.253328 42.5754097,157.83211 C38.4016582,154.884631 31.8797608,153.250515 23.0097175,152.929762 L24.5599796,146.123075 C31.519941,147.477619 36.1296104,148.385118 38.3889877,148.845572 C41.1637981,149.41107 48.1479063,152.547318 50.2387794,152.929762 C53.3050181,153.490612 55.8182182,153.490612 57.7783795,152.929762 L57.7783795,142.135933 C52.7519794,135.486846 47.180571,130.325918 41.0641542,126.653149 C34.9477375,122.980379 28.9295919,121.396154 23.0097175,121.900473 L24.5599796,115.544407 C28.9711766,115.98498 33.580846,117.341235 38.3889877,119.613173 C42.3288373,121.474827 47.1411785,124.691155 52.9514393,126.653149 C54.2319459,127.085547 56.4945496,126.903224 56.9919434,126.653149 Z" id="Rectangle" fill="#A2856D"></path>
                            <path d="M56.9919434,126.653149 C57.4893371,126.403073 58.0972253,126.403073 57.7783795,122.96781 C57.5658157,120.677635 53.9645244,112.692501 46.9745055,99.0124067 L59.1045885,99.0124067 C64.1902694,115.029795 67.3150975,123.200991 68.4790728,123.525995 C70.2250358,124.013501 72.7863466,118.476633 74.4243201,114.627716 C75.5163024,112.061772 76.6142184,107.791256 77.718068,101.816169 L94.0751844,107.441001 C87.0445686,110.594472 82.5017071,114.651862 80.4465999,119.613173 C79.7544823,121.28404 78.585805,124.898716 76.2800259,128.505534 C74.5173957,131.262731 71.7102455,133.80033 70.2091141,136.743266 C68.1988755,140.684295 72.29148,145.12717 73.1230278,150.267385 C73.9545756,155.407601 71.1555394,162.701248 78.695885,162.701248 C86.2362305,162.701248 97.1071434,149.57999 97.6177831,148.845572 C98.1284229,148.111154 97.6347916,145.069858 98.1284229,143.588691 C98.6220541,142.107523 99.7030179,141.815896 99.9345234,141.300779 C100.166029,140.785663 100.224743,136.872099 98.9671981,130.30938 C98.4552894,127.637894 96.5463771,124.502871 95.4436628,120.225408 C94.9748473,118.406859 94.5186878,115.239319 94.0751844,110.722789 L99.9345234,113.468323 C101.421403,118.695539 102.644717,121.309146 103.604466,121.309146 C104.564215,121.309146 107.137372,118.695539 111.323938,113.468323 L117.433989,111.879498 C110.273437,125.450828 106.591249,132.594845 106.387426,133.31155 C106.183604,134.028255 106.183604,138.298764 106.387426,146.123075 C107.817678,146.593807 108.830023,146.755107 109.424459,146.606974 C113.71293,145.538292 114.890731,143.835463 119.13495,143.588691 C123.379168,143.341918 127.322322,144.763802 129.765431,144.763802 C132.208539,144.763802 132.208539,144.102347 137.691002,142.135933 C140.306157,141.197947 145.210793,137.292535 151.506331,134.221821 C153.175124,133.40785 155.819476,132.651992 159.439388,131.954248 L159.439388,133.720956 C150.786209,142.704692 144.250437,148.368945 139.832071,150.713714 C133.204523,154.230866 129.765431,150.713714 127.419077,150.713714 C125.072723,150.713714 115.294331,151.615003 109.424459,153.627072 C103.554587,155.63914 98.9671981,157.83211 96.6717754,159.610987 C94.7491757,161.100939 93.4345035,161.575695 90.2550738,171.465251 C89.9986934,172.262717 89.1721568,173.116824 88.3788998,174.6037 C87.2645359,176.692456 86.0476473,179.507625 85.0975238,180.598203 C81.6420357,184.564508 79.4039665,178.272384 78.1959002,182.131473 C75.1741143,191.78437 74.8567194,218.195699 74.8567194,221.310326 C74.8567194,224.311293 77.1549082,228.054272 78.1959002,233.467639 C79.201401,238.696445 78.5334351,246.08888 77.718068,250.503523 C76.0353334,259.614355 76.9753754,271.006037 80.4465999,273.368008 C81.1731354,273.862374 80.147584,269.07433 81.826339,267.192654 C83.4318715,265.393051 87.4879622,266.930785 88.3788998,267.192654 C91.1235871,267.999387 97.6686532,272.637018 103.604466,273.862374 C107.561674,274.679277 116.281996,275.412411 129.765431,276.061776 C120.640441,277.839972 113.372941,278.582635 107.962931,278.289764 C99.8479155,277.850458 95.9690349,275.486317 94.0751844,275.087729 C92.181334,274.689141 87.9673927,273.419589 88.3788998,276.061776 C88.6532379,277.823234 90.7918636,280.454936 94.7947767,283.956882 C90.8285254,283.119522 87.8210541,282.58039 85.7723629,282.339486 C82.6993261,281.978131 81.3784285,281.997023 80.4465999,281.694019 C79.5147712,281.391015 77.6740113,275.751831 72.0943546,275.527195 C66.514698,275.302559 52.0387121,279.971659 49.5612278,280.777522 C47.0837435,281.583386 41.7870421,281.694019 40.1197902,280.264825 C38.4525382,278.835631 43.6220845,277.850746 46.0134813,277.399985 C48.404878,276.949225 59.8618764,274.599317 59.1045885,272.367701 C58.3473007,270.136086 46.4788987,273.862374 42.5754097,274.425654 C38.6719207,274.988933 26.5820749,275.087729 23.0097175,275.087729 C19.4373602,275.087729 14.5519404,277.965035 13.3092133,278.289764 C12.0664862,278.614494 10.7556592,278.877918 10.7556592,278.289764 C10.7556592,277.701611 11.2524907,274.940797 13.3092133,273.862374 C15.365936,272.783951 18.2285278,270.824149 23.0097175,270.257556 C27.7909072,269.690963 34.6657852,271.747349 37.652754,270.257556 C40.6397227,268.767763 47.7510477,263.307089 51.4368516,244.246135 C55.1226556,225.185181 56.4245437,181.282196 55.5049762,175.877723 C54.5854087,170.47325 48.836037,162.253328 42.5754097,157.83211 C38.4016582,154.884631 31.8797608,153.250515 23.0097175,152.929762 L24.5599796,146.123075 C31.519941,147.477619 36.1296104,148.385118 38.3889877,148.845572 C41.1637981,149.41107 48.1479063,152.547318 50.2387794,152.929762 C53.3050181,153.490612 55.8182182,153.490612 57.7783795,152.929762 L57.7783795,142.135933 C52.7519794,135.486846 47.180571,130.325918 41.0641542,126.653149 C34.9477375,122.980379 28.9295919,121.396154 23.0097175,121.900473 L24.5599796,115.544407 C28.9711766,115.98498 33.580846,117.341235 38.3889877,119.613173 C42.3288373,121.474827 47.1411785,124.691155 52.9514393,126.653149 C54.2319459,127.085547 56.4945496,126.903224 56.9919434,126.653149 Z" id="Rectangle" fill="#846C56"></path>
                            <path d="M17.2239567,130.312748 C22.0885661,130.426611 26.5454249,130.248585 30.5945333,129.77867 C36.6681957,129.073797 40.9219236,128.403359 43.1107917,135.291624 C45.2996598,142.179888 35.4009743,142.519412 34.1928373,142.519412 C32.9847003,142.519412 29.7234153,143.280426 28.3328403,144.724444 C27.4057902,145.687123 26.7042211,147.709048 26.228133,150.790219 C25.7192544,155.609202 23.8814207,158.018694 20.7146318,158.018694 C17.547843,158.018694 14.5952781,155.963288 11.8569371,151.852475 C8.93329493,146.651598 7.95470325,141.825552 8.92116211,137.374337 C9.88762096,132.923122 12.6552192,130.569259 17.2239567,130.312748 Z" id="Rectangle" fill="#7D9661"></path>
                            <path d="M32.6186452,138.435667 C35.6004701,137.795485 37.7004515,138.06457 38.8224939,137.030204 C41.9259815,134.169225 42.0390326,131.918848 43.1107917,135.291624 C45.2996598,142.179888 35.4009743,142.519412 34.1928373,142.519412 C32.9847003,142.519412 29.7234153,143.280426 28.3328403,144.724444 C27.4057902,145.687123 26.7042211,147.709048 26.228133,150.790219 C25.7192544,155.609202 23.8814207,158.018694 20.7146318,158.018694 C17.547843,158.018694 14.5952781,155.963288 11.8569371,151.852475 C11.8225209,150.081648 12.2885422,146.970627 13.255001,142.519412 C14.7046893,135.84259 29.6368203,139.075849 32.6186452,138.435667 Z" id="Rectangle" fill="#5D6F47"></path>
                            <path d="M17.8281026,94.9549846 C18.7686121,96.6474094 23.789535,98.263947 27.7769673,102.284293 C29.5973028,104.119654 31.6335307,107.228088 31.6335307,109.757964 C31.6335307,111.273912 30.6105629,111.938335 29.9135572,113.41544 C29.4473708,114.40339 29.5152875,116.058574 28.6953103,117.451102 C28.1598875,118.360385 26.7077956,119.019624 25.9121463,120.093128 C24.6809196,121.754319 24.6809196,124.903054 22.0703153,125.99872 C21.5899216,126.20034 19.4522227,123.114092 16.0606825,120.093128 C13.6792599,117.971911 6.30943814,117.238679 3.00941982,113.41544 C0.507187528,110.516478 0.200121602,108.217877 0.200121602,98.3784584 C0.200121602,88.5390394 15.7732987,91.2574132 17.8281026,94.9549846 Z" id="Rectangle" fill="#7D9661"></path>
                            <path d="M9.70959649,101.501071 C12.6816973,103.595122 18.0828831,102.78858 22.0703153,106.808926 C23.8906509,108.644287 31.6335307,107.228088 31.6335307,109.757964 C31.6335307,111.273912 30.6105629,111.938335 29.9135572,113.41544 C29.4473708,114.40339 29.5152875,116.058574 28.6953103,117.451102 C28.1598875,118.360385 26.7077956,119.019624 25.9121463,120.093128 C24.6809196,121.754319 24.6809196,124.903054 22.0703153,125.99872 C21.5899216,126.20034 19.4522227,123.114092 16.0606825,120.093128 C13.6792599,117.971911 6.30943814,117.238679 3.00941982,113.41544 C0.507187528,110.516478 0.0662314135,106.772994 0.0662314135,104.661477 C0.0662314135,102.54996 5.66067884,98.6483271 9.70959649,101.501071 Z" id="Rectangle" fill="#5D6F47"></path>
                            <path d="M62.3757593,0.912177058 C124.273099,-3.62161919 108.873688,10.921041 134.052366,15.3168474 C159.231044,19.7126538 173.295879,28.1913607 173.295879,45.250701 C173.295879,62.3100412 168.666827,60.5865 164.344979,67.2481973 C160.593079,73.0313781 169.828293,83.3446137 166.409444,85.4049329 C158.143261,90.3864273 139.850018,91.8155607 137.045935,93.0473627 C129.633654,96.3034949 130.902648,112.759959 111.399215,115.186048 C108.00572,115.608174 104.340422,117.171063 99.2067027,115.186048 C93.2118795,112.868076 85.5849114,106.805796 79.69912,105.12744 C73.8415038,103.457118 62.469668,108.066733 55.0734257,105.12744 C51.6469742,103.765756 47.0948601,100.026792 41.2279267,96.4896578 C38.4397232,94.8086689 29.4680542,95.0665136 24.0187217,91.6512779 C22.877621,90.936121 18.3743327,88.8191758 17.1960005,86.7561731 C15.7281751,84.1863308 17.5174391,81.4665207 15.2642895,78.926197 C14.4174547,77.9714293 0.83470959,60.0035452 4.3837714,45.250701 C14.4174547,3.54239202 33.0807706,3.05794796 62.3757593,0.912177058 Z" id="Rectangle" fill="#7D9661"></path>
                            <path d="M173.320662,43.1505963 C173.278708,49.6909652 172.844904,54.0391539 172.01925,56.1951625 C170.256202,60.7989626 166.037367,64.639551 164.344979,67.2481973 C160.593079,73.0313781 169.828293,83.3446137 166.409444,85.4049329 C158.143261,90.3864273 139.850018,91.8155607 137.045935,93.0473627 C129.633654,96.3034949 130.902648,112.759959 111.399215,115.186048 C108.00572,115.608174 104.340422,117.171063 99.2067027,115.186048 C93.2118795,112.868076 85.5849114,106.805796 79.69912,105.12744 C73.8415038,103.457118 62.469668,108.066733 55.0734257,105.12744 C51.6469742,103.765756 47.0948601,100.026792 41.2279267,96.4896578 C38.4397232,94.8086689 29.4680542,95.0665136 24.0187217,91.6512779 C22.877621,90.936121 18.3743327,88.8191758 17.1960005,86.7561731 C15.7281751,84.1863308 17.5174391,81.4665207 15.2642895,78.926197 C14.4174547,77.9714293 0.83470959,60.0035452 4.3837714,45.250701 C4.72996538,43.8116317 5.27246382,41.7614665 6.01126672,39.1002053 C13.0805979,50.1803651 23.0971044,56.7068701 36.0607862,58.6797203 C43.9702356,59.8834029 70.2605931,54.6368582 95.0013579,62.4954159 C103.669757,65.2488114 110.995794,71.5593384 118.861945,77.6349959 C121.255788,79.4839523 144.734603,84.5011904 156.455423,77.0227195 C159.294847,75.2110246 159.543917,71.0871894 160.442848,68.3745632 C160.82042,67.2351976 165.867425,61.2455315 167.455602,55.0141769 C167.839054,53.5096703 169.794074,49.5551434 173.320662,43.1505963 Z" id="Rectangle" fill="#5D6F47"></path>
                            <path d="M157.490018,130.908437 C159.096215,128.974565 159.972458,128.003574 159.798015,126.022166 C159.292776,120.283434 159.695753,116.359954 165.604964,112.869357 C170.217398,110.144772 169.425006,118.968902 171.362054,122.981236 C172.296343,124.916491 174.35329,126.8558 177.532894,128.799162 C181.985458,131.6101 184.211739,136.114649 184.211739,142.312808 C184.211739,151.610047 178.61998,152.296487 176.218734,153.336951 C173.817489,154.377414 172.741473,150.561476 170.770731,149.313598 C167.348017,147.146329 162.798487,146.032412 160.885752,145.054719 C150.276586,139.631852 150.553273,138.653839 150.428694,137.302892 C149.968875,132.316565 155.883821,132.842309 157.490018,130.908437 Z" id="Rectangle" fill="#7D9661"></path>
                            <path d="M157.490018,130.908437 C159.096215,128.974565 159.972458,128.003574 159.798015,126.022166 C159.61387,123.930568 159.61387,121.540615 159.798015,118.852308 C162.395506,122.293785 164.898673,124.852472 167.307516,126.52837 C170.15516,128.509554 173.937748,131.600248 177.760078,134.452282 C180.736418,136.67308 184.211739,138.242638 184.211739,142.312808 C184.211739,151.610047 178.61998,152.296487 176.218734,153.336951 C173.817489,154.377414 172.741473,150.561476 170.770731,149.313598 C167.348017,147.146329 162.798487,146.032412 160.885752,145.054719 C150.276586,139.631852 150.553273,138.653839 150.428694,137.302892 C149.968875,132.316565 155.883821,132.842309 157.490018,130.908437 Z" id="Rectangle" fill="#5D6F47"></path>
                        </g>
                        <path d="M123.855932,155.876386 L119.547535,151.345798 L123.231972,150.923786 C124.260163,151.938309 124.962552,152.445571 125.339141,152.445571 C126.19441,152.445571 127.623306,151.17044 127.623306,146.999735 C127.623306,145.870048 127.129694,144.964411 126.14247,144.282823 C125.544425,144.105644 125.07147,143.985828 124.723607,143.923373 C124.375743,143.860919 123.704937,143.806555 122.711189,143.760281 L119,143.551893 C119.722158,142.183964 121.53052,141.5 124.425087,141.5 C128.766938,141.5 131,142.596081 131,145.213453 C131,148.054747 130.698946,151.210552 128.96335,153.891566 C128.61796,154.425098 127.833635,155.086705 126.610374,155.876386 L126.610374,201.5 L123.855932,201.5 L123.855932,155.876386 Z" id="Rectangle" fill="#333333"></path>
                        <g id="Group-5" transform="translate(102.000000, 199.000000)">
                            <path d="M19.1698811,1.55536897 C29.2126419,10.9477002 34.2699239,20.5199532 34.2699239,30.2663051 C34.2699239,39.8957769 29.3332104,49.3553005 19.529034,58.6392598 L32.2276989,57.2123495 C39.7389541,52.0530918 43.5122597,43.1100163 43.5122597,30.2663051 C43.5122597,17.4359731 39.4869634,7.89719797 31.4443795,1.55536897 L19.1698811,1.55536897 Z" id="Rectangle" stroke="#333333" stroke-width="2" fill="#FFFFFF"></path>
                            <path d="M17.1297794,58.5901224 C7.66926348,58.5901224 0,45.9091174 0,30.2663051 C0,14.6234927 7.66926348,1.9424877 17.1297794,1.9424877 C26.5902953,1.9424877 34.2595588,14.6234927 34.2595588,30.2663051 C34.2595588,45.9091174 26.5902953,58.5901224 17.1297794,58.5901224 Z M17.6823529,47.4827431 C23.1755557,47.4827431 27.6286765,39.7746812 27.6286765,30.2663051 C27.6286765,20.7579289 23.1755557,13.0498671 17.6823529,13.0498671 C12.1891501,13.0498671 7.73602941,20.7579289 7.73602941,30.2663051 C7.73602941,39.7746812 12.1891501,47.4827431 17.6823529,47.4827431 Z" id="Combined-Shape" stroke="#333333" stroke-width="2" fill="#DFDFDF"></path>
                            <path d="M25.2841212,19.1630936 C22.5995864,19.3299528 20.4452206,24.4858013 20.4452206,30.821674 C20.4452206,36.7313335 22.3194877,41.614389 24.7500482,42.3800112 C22.947453,45.5309047 20.4465879,47.4827431 17.6823529,47.4827431 C12.1891501,47.4827431 7.73602941,39.7746812 7.73602941,30.2663051 C7.73602941,20.7579289 12.1891501,13.0498671 17.6823529,13.0498671 C20.7311761,13.0498671 23.4596078,15.4242917 25.2841212,19.1630936 Z" id="Combined-Shape" fill="#333333"></path>
                        </g>
                        <path d="M117.148034,201.591187 C117.711793,198.606975 120.102766,194.142237 126.221667,195.143398 C130.300933,195.810838 133.893711,198.657697 137,203.683975 C135.269529,202.686907 133.969491,202.055631 133.099886,201.790147 C132.875799,201.721735 132.519974,201.618065 132.03241,201.479138 L131.542938,201.479138 C129.973729,199.951016 129.0182,199.054726 128.676349,198.790267 C127.410295,197.810835 125.29627,197.337763 124.06199,197.876591 C122.827711,198.415419 119.47213,199.446033 119.90666,203.036538 C120.136513,204.935798 119.809597,208.380256 122.325165,212.700782 C122.761729,213.450587 124.060563,214.545812 126.221667,215.986456 L127.443821,218 C123.252954,217.281452 120.580014,216.017789 119.425,214.209013 C117.692479,211.495848 116.584275,204.5754 117.148034,201.591187 Z" id="Rectangle" fill="#333333"></path>
                    </g>
                </g>
            </g>
        </g>
    </g>
</svg>