<?xml version="1.0" encoding="UTF-8"?>
<svg width="186px" height="305px" viewBox="0 0 186 305" version="1.1" xmlns="http://www.w3.org/2000/svg" xmlns:xlink="http://www.w3.org/1999/xlink">
    <!-- Generator: Sketch 52 (66869) - http://www.bohemiancoding.com/sketch -->
    <title>tree_3</title>
    <desc>Created with Sketch.</desc>
    <g id="Page-1" stroke="none" stroke-width="1" fill="none" fill-rule="evenodd">
        <g id="Desktop" transform="translate(-981.000000, -4071.000000)" fill-rule="nonzero">
            <g id="Group-13" transform="translate(405.000000, 4070.500000)">
                <g id="Group-2" transform="translate(27.000000, 0.000000)">
                    <g id="tree_3" transform="translate(549.000000, 1.000000)">
                        <g id="tree-3">
                            <g id="tree">
                                <path d="M21.6944072,291.479081 C10.3251363,289.51181 3.4260355,286.927212 3.4260355,284.096408 C3.4260355,277.933809 36.1224948,272.938036 76.4556213,272.938036 C116.788748,272.938036 149.485207,277.933809 149.485207,284.096408 C149.485207,289.878846 120.698304,294.633978 83.826807,295.198645 C84.6170977,295.751791 85.0372124,296.331396 85.0372124,296.928536 C85.0372124,300.778746 67.5715785,303.899959 46.0266272,303.899959 C24.481676,303.899959 7.01604208,300.778746 7.01604208,296.928536 C7.01604208,294.722912 12.7476734,292.756521 21.6944072,291.479081 Z" id="Combined-Shape" fill="#333333" opacity="0.2"></path>
                                <path d="M57.2975305,128.095411 C57.7975453,127.842509 58.4086367,127.842509 58.0881108,124.368434 C57.8744269,122.052384 54.2541586,113.977031 47.227306,100.142376 L59.4213082,100.142376 C64.533788,116.340733 67.6750823,124.604249 68.8451912,124.932925 C70.6003544,125.425939 73.175162,119.826514 74.8217667,115.934112 C75.9195032,113.339177 77.0232047,109.020411 78.132871,102.977815 L94.5761809,108.666199 C87.5085174,111.855298 82.9417173,115.95853 80.8757808,120.975896 C79.6481456,123.957349 77.9971631,128.907561 77.2118621,135.749596 C76.6756124,140.421739 75.902169,148.527963 76.5570155,152.427819 C77.2118621,156.327675 78.4280595,160.761265 84.0825664,160.261642 C89.7370732,159.762019 97.6241167,151.281287 98.1374472,150.538571 C98.6507777,149.795854 98.1545453,146.720198 98.6507777,145.222295 C99.1470101,143.724393 100.23367,143.429471 100.466395,142.908535 C100.699121,142.387598 100.758144,138.429817 99.4939729,131.792951 C98.9793667,129.091282 97.0603954,125.920838 95.9518704,121.595048 C95.4805845,119.755952 95.0220213,116.552624 94.5761809,111.985066 L100.466395,114.761619 C101.96111,120.047893 103.19087,122.69103 104.155677,122.69103 C105.120483,122.69103 107.707199,120.047893 111.915827,114.761619 L118.058074,113.154843 C110.85979,126.879506 107.158199,134.104238 106.953302,134.829041 C106.748405,135.553843 106.748405,139.872601 106.953302,147.785314 C108.39109,148.261365 109.408769,148.424486 110.006338,148.27468 C114.317407,147.193924 115.501415,145.471856 119.767998,145.222295 C124.034581,144.972735 127.998514,146.410683 130.454496,146.410683 C132.910478,146.410683 132.910478,145.741755 138.421831,143.753124 C141.050766,142.80454 145.981248,138.855004 152.30996,135.749596 C153.987546,134.926428 156.645833,134.162031 160.28482,133.456404 L160.28482,135.243072 C151.586043,144.328309 145.01583,150.056558 140.574182,152.427819 C133.91171,155.984709 130.454496,152.427819 128.095778,152.427819 C125.737061,152.427819 115.907142,153.339292 110.006338,155.374093 C104.105535,157.408894 99.4939729,159.626641 97.1864546,161.425616 C94.8789362,163.224592 91.1339832,170.690951 88.299687,186.705912 C85.4653909,202.720874 84.0825664,230.541979 84.0825664,235.468078 C84.0825664,240.394176 87.581498,261.8476 95.9518704,269.740011 C101.532119,275.001619 113.032994,278.152315 130.454496,279.1921 C121.281422,280.990387 113.975627,281.74144 108.537108,281.445261 C100.379331,281.000991 96.480011,278.610139 94.5761809,278.207048 C92.6723508,277.803956 88.4362043,276.52006 88.8498798,279.1921 C89.1256635,280.97346 91.2755586,283.634895 95.2995651,287.176407 C91.3124137,286.329586 88.2890946,285.784363 86.2296078,285.540737 C83.1403777,285.175299 81.8125197,285.194405 80.8757808,284.887978 C79.9390419,284.58155 78.0885821,278.878653 72.4795236,278.651479 C66.8704651,278.424305 52.3181983,283.146157 49.827659,283.961126 C47.3371197,284.776094 42.0125074,284.887978 40.3364699,283.442636 C38.6604325,281.997295 43.8572196,281.001282 46.2612177,280.545428 C48.6652159,280.089575 60.1825866,277.713117 59.4213082,275.456288 C58.6600299,273.19946 46.7290876,276.967848 42.8050293,277.537492 C38.8809709,278.107136 26.7274179,278.207048 23.1362362,278.207048 C19.5450544,278.207048 14.633891,281.116862 13.3846154,281.445261 C12.1353397,281.773659 10.8176054,282.040059 10.8176054,281.445261 C10.8176054,280.850462 11.3170549,278.058455 13.3846154,276.967848 C15.4521759,275.877241 18.3298521,273.895297 23.1362362,273.322302 C27.9426202,272.749307 34.8537252,274.828927 37.8564337,273.322302 C40.8591423,271.815677 48.0079402,266.293307 51.7131664,247.016997 C55.4183926,227.740687 56.727141,183.341673 55.8027279,177.876139 C54.8783147,172.410605 49.0986468,164.097811 42.8050293,159.626641 C38.6092843,156.64586 32.0530199,154.993282 23.1362362,154.668905 L24.6946673,147.785314 C31.6913041,149.155162 36.325264,150.072914 38.596547,150.538571 C41.3859792,151.110458 48.40689,154.28214 50.5087809,154.668905 C53.5911771,155.236091 56.1176204,155.236091 58.0881108,154.668905 L58.0881108,143.753124 C53.0352242,137.028914 47.4344574,131.809676 41.2858103,128.095411 C35.1371633,124.381145 29.0873052,122.779021 23.1362362,123.289038 L24.6946673,116.861159 C29.129109,117.30671 33.7630689,118.678289 38.596547,120.975896 C42.5571576,122.858582 47.3948573,126.11125 53.2357351,128.095411 C54.5229893,128.532694 56.7975158,128.348312 57.2975305,128.095411 Z" id="Rectangle" fill="#A2856D"></path>
                                <path d="M57.2975305,128.095411 C57.7975453,127.842509 58.4086367,127.842509 58.0881108,124.368434 C57.8744269,122.052384 54.2541586,113.977031 47.227306,100.142376 L59.4213082,100.142376 C64.533788,116.340733 67.6750823,124.604249 68.8451912,124.932925 C70.6003544,125.425939 73.175162,119.826514 74.8217667,115.934112 C75.9195032,113.339177 77.0232047,109.020411 78.132871,102.977815 L94.5761809,108.666199 C87.5085174,111.855298 82.9417173,115.95853 80.8757808,120.975896 C80.1800161,122.66564 79.0051805,126.321156 76.6872512,129.968725 C74.9153328,132.757073 72.0933904,135.323343 70.5843489,138.299529 C68.5635173,142.285085 72.6776877,146.778157 73.5136173,151.976448 C74.3495469,157.174739 71.5357613,164.550792 79.1158405,164.550792 C86.6959198,164.550792 97.6241167,151.281287 98.1374472,150.538571 C98.6507777,149.795854 98.1545453,146.720198 98.6507777,145.222295 C99.1470101,143.724393 100.23367,143.429471 100.466395,142.908535 C100.699121,142.387598 100.758144,138.429817 99.4939729,131.792951 C98.9793667,129.091282 97.0603954,125.920838 95.9518704,121.595048 C95.4805845,119.755952 95.0220213,116.552624 94.5761809,111.985066 L100.466395,114.761619 C101.96111,120.047893 103.19087,122.69103 104.155677,122.69103 C105.120483,122.69103 107.707199,120.047893 111.915827,114.761619 L118.058074,113.154843 C110.85979,126.879506 107.158199,134.104238 106.953302,134.829041 C106.748405,135.553843 106.748405,139.872601 106.953302,147.785314 C108.39109,148.261365 109.408769,148.424486 110.006338,148.27468 C114.317407,147.193924 115.501415,145.471856 119.767998,145.222295 C124.034581,144.972735 127.998514,146.410683 130.454496,146.410683 C132.910478,146.410683 132.910478,145.741755 138.421831,143.753124 C141.050766,142.80454 145.981248,138.855004 152.30996,135.749596 C153.987546,134.926428 156.645833,134.162031 160.28482,133.456404 L160.28482,135.243072 C151.586043,144.328309 145.01583,150.056558 140.574182,152.427819 C133.91171,155.984709 130.454496,152.427819 128.095778,152.427819 C125.737061,152.427819 115.907142,153.339292 110.006338,155.374093 C104.105535,157.408894 99.4939729,159.626641 97.1864546,161.425616 C95.2537237,162.932402 93.9321239,163.412522 90.7359402,173.413813 C90.4782089,174.220289 89.6473168,175.084046 88.8498798,176.587721 C87.7296437,178.700077 86.5063428,181.547052 85.5512127,182.649952 C82.077516,186.661069 79.8276533,180.297855 78.6132211,184.200545 C75.575512,193.962503 75.2564445,220.672235 75.2564445,223.822052 C75.2564445,226.856925 77.5667436,230.642193 78.6132211,236.116722 C79.6240204,241.404604 78.9525346,248.880562 78.132871,253.345082 C76.4412692,262.558851 77.3862648,274.07924 80.8757808,276.467896 C81.6061448,276.967848 80.5751893,272.125708 82.2627905,270.222772 C83.8767832,268.402836 87.9542474,269.957944 88.8498798,270.222772 C91.6090301,271.03862 98.1885853,275.728648 104.155677,276.967848 C108.133737,277.793981 116.900011,278.535398 130.454496,279.1921 C121.281422,280.990387 113.975627,281.74144 108.537108,281.445261 C100.379331,281.000991 96.480011,278.610139 94.5761809,278.207048 C92.6723508,277.803956 88.4362043,276.52006 88.8498798,279.1921 C89.1256635,280.97346 91.2755586,283.634895 95.2995651,287.176407 C91.3124137,286.329586 88.2890946,285.784363 86.2296078,285.540737 C83.1403777,285.175299 81.8125197,285.194405 80.8757808,284.887978 C79.9390419,284.58155 78.0885821,278.878653 72.4795236,278.651479 C66.8704651,278.424305 52.3181983,283.146157 49.827659,283.961126 C47.3371197,284.776094 42.0125074,284.887978 40.3364699,283.442636 C38.6604325,281.997295 43.8572196,281.001282 46.2612177,280.545428 C48.6652159,280.089575 60.1825866,277.713117 59.4213082,275.456288 C58.6600299,273.19946 46.7290876,276.967848 42.8050293,277.537492 C38.8809709,278.107136 26.7274179,278.207048 23.1362362,278.207048 C19.5450544,278.207048 14.633891,281.116862 13.3846154,281.445261 C12.1353397,281.773659 10.8176054,282.040059 10.8176054,281.445261 C10.8176054,280.850462 11.3170549,278.058455 13.3846154,276.967848 C15.4521759,275.877241 18.3298521,273.895297 23.1362362,273.322302 C27.9426202,272.749307 34.8537252,274.828927 37.8564337,273.322302 C40.8591423,271.815677 48.0079402,266.293307 51.7131664,247.016997 C55.4183926,227.740687 56.727141,183.341673 55.8027279,177.876139 C54.8783147,172.410605 49.0986468,164.097811 42.8050293,159.626641 C38.6092843,156.64586 32.0530199,154.993282 23.1362362,154.668905 L24.6946673,147.785314 C31.6913041,149.155162 36.325264,150.072914 38.596547,150.538571 C41.3859792,151.110458 48.40689,154.28214 50.5087809,154.668905 C53.5911771,155.236091 56.1176204,155.236091 58.0881108,154.668905 L58.0881108,143.753124 C53.0352242,137.028914 47.4344574,131.809676 41.2858103,128.095411 C35.1371633,124.381145 29.0873052,122.779021 23.1362362,123.289038 L24.6946673,116.861159 C29.129109,117.30671 33.7630689,118.678289 38.596547,120.975896 C42.5571576,122.858582 47.3948573,126.11125 53.2357351,128.095411 C54.5229893,128.532694 56.7975158,128.348312 57.2975305,128.095411 Z" id="Rectangle" fill="#846C56"></path>
                                <path d="M17.3199874,131.796357 C22.2102308,131.911507 26.6905749,131.73147 30.7610199,131.256245 C36.8666874,130.543408 41.1428301,129.865395 43.3432324,136.831486 C45.5436348,143.797576 35.5927884,144.140936 34.3782851,144.140936 C33.1637819,144.140936 29.8853116,144.910548 28.487409,146.370881 C27.5554739,147.344436 26.8502079,149.389206 26.371611,152.505189 C25.8600509,157.378618 24.0125327,159.815333 20.8290566,159.815333 C17.6455804,159.815333 14.677457,157.736704 11.9246865,153.579446 C8.98563819,148.319808 8.00188985,143.439236 8.97344144,138.93773 C9.94499303,134.436224 12.727175,132.055767 17.3199874,131.796357 Z" id="Rectangle" fill="#7D9661"></path>
                                <path d="M32.7957979,140.011051 C35.7933354,139.363636 37.9043826,139.635761 39.0323376,138.589709 C42.1521789,135.696405 42.2658258,133.420604 43.3432324,136.831486 C45.5436348,143.797576 35.5927884,144.140936 34.3782851,144.140936 C33.1637819,144.140936 29.8853116,144.910548 28.487409,146.370881 C27.5554739,147.344436 26.8502079,149.389206 26.371611,152.505189 C25.8600509,157.378618 24.0125327,159.815333 20.8290566,159.815333 C17.6455804,159.815333 14.677457,157.736704 11.9246865,153.579446 C11.8900888,151.788612 12.3585658,148.642441 13.3301174,144.140936 C14.7874448,137.388677 29.7982603,140.658467 32.7957979,140.011051 Z" id="Rectangle" fill="#5D6F47"></path>
                                <path d="M17.9273168,96.0391116 C18.8727823,97.7506579 23.9201629,99.3854596 27.9286068,103.451229 C29.7585346,105.307326 31.8054923,108.45088 31.8054923,111.009339 C31.8054923,112.542415 30.777134,113.214345 30.0764555,114.708139 C29.6078125,115.707251 29.6760871,117.381135 28.8517891,118.789397 C28.3135449,119.708953 26.8538012,120.37564 26.0539592,121.461273 C24.8162446,123.141233 24.8162446,126.325543 22.1918838,127.433588 C21.7089587,127.637486 19.5599952,124.516368 16.1505834,121.461273 C13.7566119,119.31609 6.34795505,118.574573 3.03054737,114.708139 C0.515129616,111.776423 0.206445615,109.451852 0.206445615,99.5012648 C0.206445615,89.5506773 15.8616852,92.2997641 17.9273168,96.0391116 Z" id="Rectangle" fill="#7D9661"></path>
                                <path d="M9.76603046,102.659157 C12.7537927,104.776868 18.1834399,103.961213 22.1918838,108.026982 C24.0218116,109.88308 31.8054923,108.45088 31.8054923,111.009339 C31.8054923,112.542415 30.777134,113.214345 30.0764555,114.708139 C29.6078125,115.707251 29.6760871,117.381135 28.8517891,118.789397 C28.3135449,119.708953 26.8538012,120.37564 26.0539592,121.461273 C24.8162446,123.141233 24.8162446,126.325543 22.1918838,127.433588 C21.7089587,127.637486 19.5599952,124.516368 16.1505834,121.461273 C13.7566119,119.31609 6.34795505,118.574573 3.03054737,114.708139 C0.515129616,111.776423 0.0718498947,107.990644 0.0718498947,105.855271 C0.0718498947,103.719897 5.69577713,99.7741826 9.76603046,102.659157 Z" id="Rectangle" fill="#5D6F47"></path>
                                <path d="M62.7097164,0.933781385 C124.933222,-3.65123899 109.452665,11.0557283 134.764022,15.5011998 C160.075378,19.9466713 174.214327,28.5211731 174.214327,45.7732547 C174.214327,63.0253363 169.560882,61.282322 165.216261,68.0192851 C161.44459,73.867806 170.728469,84.2975634 167.291604,86.3811607 C158.981862,91.4189374 140.592224,92.8642176 137.773365,94.1099369 C130.322024,97.4028578 131.597706,114.045252 111.9915,116.498751 C108.580123,116.925647 104.895511,118.506194 99.7347396,116.498751 C93.7083267,114.15459 86.0411685,108.023817 80.1243621,106.326498 C74.2358794,104.637305 62.8041199,109.299001 55.3689033,106.326498 C51.9243962,104.949429 47.3482948,101.168222 41.4504457,97.591124 C38.6475499,95.8911428 29.6286049,96.1519008 24.1505573,92.6980787 C23.0034435,91.9748417 18.4764253,89.8339788 17.2918839,87.7476676 C15.8163238,85.1487905 17.6150164,82.3982512 15.3499938,79.8292262 C14.4986966,78.8636713 0.844377549,60.6927808 4.41214105,45.7732547 C14.4986966,3.59371327 33.2603584,3.10379582 62.7097164,0.933781385 Z" id="Rectangle" fill="#7D9661"></path>
                                <path d="M174.239241,43.6494225 C174.197066,50.2636863 173.760976,54.6610021 172.930971,56.8413699 C171.158632,61.4971851 166.917566,65.3811655 165.216261,68.0192851 C161.44459,73.867806 170.728469,84.2975634 167.291604,86.3811607 C158.981862,91.4189374 140.592224,92.8642176 137.773365,94.1099369 C130.322024,97.4028578 131.597706,114.045252 111.9915,116.498751 C108.580123,116.925647 104.895511,118.506194 99.7347396,116.498751 C93.7083267,114.15459 86.0411685,108.023817 80.1243621,106.326498 C74.2358794,104.637305 62.8041199,109.299001 55.3689033,106.326498 C51.9243962,104.949429 47.3482948,101.168222 41.4504457,97.591124 C38.6475499,95.8911428 29.6286049,96.1519008 24.1505573,92.6980787 C23.0034435,91.9748417 18.4764253,89.8339788 17.2918839,87.7476676 C15.8163238,85.1487905 17.6150164,82.3982512 15.3499938,79.8292262 C14.4986966,78.8636713 0.844377549,60.6927808 4.41214105,45.7732547 C4.7601593,44.3179264 5.30551642,42.2445978 6.04821243,39.553269 C13.1547953,50.7586156 23.2240836,57.3588589 36.2560772,59.353999 C44.2072052,60.5712812 70.6360991,55.2654595 95.5072348,63.2128054 C104.221311,65.9973096 111.585954,72.3791347 119.493555,78.5234368 C121.900012,80.3932832 145.502548,85.4672074 157.28513,77.9042426 C160.139517,76.0720787 160.3899,71.9016512 161.293567,69.158377 C161.673129,68.0061385 166.746729,61.9487994 168.343275,55.6470412 C168.728748,54.1255362 170.694069,50.12633 174.239241,43.6494225 Z" id="Rectangle" fill="#5D6F47"></path>
                                <path d="M158.325178,132.398776 C159.939838,130.443055 160.820699,129.461093 160.645336,127.457299 C160.137435,121.653729 160.542535,117.68592 166.482885,114.155886 C171.119624,111.400518 170.323056,120.324345 172.270312,124.382012 C173.209524,126.339132 175.27731,128.300352 178.473669,130.26567 C182.949695,133.108367 185.187708,137.663809 185.187708,143.931997 C185.187708,153.33428 179.566483,154.028475 177.152584,155.080694 C174.738686,156.132913 173.657,152.273861 171.675873,151.011885 C168.235123,148.820129 163.661619,147.693626 161.738805,146.704887 C151.073734,141.220752 151.351879,140.231688 151.226644,138.865477 C150.764402,133.822814 156.710517,134.354498 158.325178,132.398776 Z" id="Rectangle" fill="#7D9661"></path>
                                <path d="M158.325178,132.398776 C159.939838,130.443055 160.820699,129.461093 160.645336,127.457299 C160.460221,125.342069 160.460221,122.925114 160.645336,120.206433 C163.256515,123.686793 165.772872,126.27439 168.194409,127.969223 C171.057058,129.972791 174.859578,133.098403 178.70205,135.982661 C181.694074,138.22855 185.187708,139.815841 185.187708,143.931997 C185.187708,153.33428 179.566483,154.028475 177.152584,155.080694 C174.738686,156.132913 173.657,152.273861 171.675873,151.011885 C168.235123,148.820129 163.661619,147.693626 161.738805,146.704887 C151.073734,141.220752 151.351879,140.231688 151.226644,138.865477 C150.764402,133.822814 156.710517,134.354498 158.325178,132.398776 Z" id="Rectangle" fill="#5D6F47"></path>
                            </g>
                            <path d="M54.7454153,217.682936 C53.8126094,216.888603 53.5894044,216.079107 54.0758005,215.254449 C54.5621965,214.429791 55.5127924,214.230437 56.927588,214.656388 C63.9097578,217.741051 70.6631949,219.116151 77.1878994,218.781688 C83.7126039,218.447226 86.2542303,216.986877 84.8127787,214.400641 C84.7512779,214.214907 84.7512779,214.10007 84.8127787,214.05613 C85.2352355,213.754297 86.0203218,213.930158 86.6432014,214.400641 C87.4020984,214.973862 87.7841031,215.513743 87.7892154,216.020282 C88.3640029,219.517704 85.2552192,221.604008 78.4628643,222.279193 C71.6705094,222.954378 64.7544737,221.788543 57.7147572,218.781688 C56.9457307,223.272997 56.5331482,226.680919 56.4770097,229.005454 C56.2623925,237.892133 56.8547695,246.114058 55.978149,251.650786 C55.3108236,255.865608 59.0551304,269.42707 67.2110694,292.335172 L63.9235577,292.335172 C55.1316352,271.272429 51.411749,256.600301 52.763899,248.318789 C53.4974577,243.825962 53.0459058,237.535003 53.3068959,229.005454 C53.3761687,226.741516 53.8556751,222.967344 54.7454153,217.682936 Z" id="Rectangle" fill="#333333"></path>
                            <path d="M54.4550886,199.784313 C53.7158338,199.020132 53.5894044,198.225712 54.0758005,197.401054 C54.5621965,196.576396 55.5127924,196.377042 56.927588,196.802992 C63.9097578,199.887655 70.6631949,201.262756 77.1878994,200.928293 C83.7126039,200.59383 87.0881689,198.932119 87.3145946,195.94316 C88.4080658,195.369939 89.3342499,195.369939 90.0931469,195.94316 C90.8520438,196.516382 91.1000054,197.246291 90.8370315,198.132889 C89.3799416,201.652976 85.2552192,203.750613 78.4628643,204.425797 C71.6705094,205.100982 64.7544737,203.935148 57.7147572,200.928293 C53.5845077,217.559824 50.9090961,229.730156 49.6885224,237.439289 C48.6875344,243.761522 44.2627035,267.265123 42.0478654,273.411929 C40.0558384,278.940371 31.481653,279.985021 28.6212254,283.030675 C26.8889231,284.875151 25.745557,288.316669 25.1911271,293.355228 L21.9636446,293.355228 C20.6770991,289.436041 21.7529266,285.398649 25.1911271,281.243052 C30.3484278,275.009657 36.8882057,278.959211 39.8473706,269.909786 C42.0478654,263.180451 43.9102933,250.12051 47.4945462,231.03666 C48.6557398,224.854049 50.9759207,214.4366 54.4550886,199.784313 Z" id="Rectangle" fill="#333333"></path>
                            <g id="Group-4" transform="translate(16.704142, 291.349350)">
                                <polygon id="Rectangle" fill="#C3C3C3" points="-7.99360578e-15 1.11583721 8.85207101 4.02181094 8.85207101 8.62358578 -7.99360578e-15 5.7956164"></polygon>
                                <path d="M-6.03961325e-13,1.11583721 L8.85207101,4.02181094 L59.1351837,2.25865873 L52.2260428,0.0574719364 L50.1950965,0.0574719364 C49.8372691,0.492437143 49.3295198,0.709919746 48.6718484,0.709919746 C48.014177,0.709919746 47.4550318,0.535144267 46.9944129,0.185593309 L8.33395164,0.934664576 C8.31928601,1.67131582 7.84429423,2.03964144 6.90897628,2.03964144 C5.97365833,2.03964144 5.46950563,1.69598569 5.39651819,1.00867421 L-6.03961325e-13,1.11583721 Z" id="Rectangle" fill="#FFFFFF"></path>
                                <polygon id="Rectangle" fill="#A5A5A5" points="8.85207101 4.02181094 59.1023692 2.2336689 59.1023692 6.88921142 8.85207101 8.62358578"></polygon>
                            </g>
                        </g>
                        <polygon id="Line-2" stroke="#333333" stroke-width="2" stroke-linecap="square" points="18.937669 292.303538 69.5404325 291 77 293.242444 77 299.279846 26.7902962 301 17 298.229588 17 292.303538"></polygon>
                    </g>
                </g>
            </g>
        </g>
    </g>
</svg>