<?xml version="1.0" encoding="UTF-8"?>
<svg width="29px" height="29px" viewBox="0 0 29 29" version="1.1" xmlns="http://www.w3.org/2000/svg" xmlns:xlink="http://www.w3.org/1999/xlink">
    <!-- Generator: Sketch 52 (66869) - http://www.bohemiancoding.com/sketch -->
    <title>linkedin</title>
    <desc>Created with Sketch.</desc>
    <g id="Page-1" stroke="none" stroke-width="1" fill="none" fill-rule="evenodd">
        <g id="Artboard" transform="translate(-133.000000, -12.000000)" fill="#000000">
            <g id="linkedin" transform="translate(133.000000, 12.000000)">
                <path d="M29,6.75054297 L29,2.39142383 C29,1.07283008 27.9271699,0 26.6085762,0 L2.39142383,0 C1.07283008,0 0,1.07283008 0,2.39142383 L0,26.6085195 C0,27.9271699 1.07283008,29 2.39142383,29 L26.6085195,29 C27.9271699,29 29,27.9271699 29,26.6085762 L29,6.75054297 L28.0918242,6.75054297 L28.0918242,26.6085762 C28.0918242,27.4264668 27.4264668,28.0918809 26.6085195,28.0918809 L2.39142383,28.0918809 C1.5735332,28.0918809 0.908119141,27.4264668 0.908119141,26.6085762 L0.908119141,2.39142383 C0.908119141,1.5735332 1.5735332,0.908119141 2.39142383,0.908119141 L26.6085195,0.908119141 C27.4264668,0.908119141 28.0918242,1.5735332 28.0918242,2.39142383 L28.0918242,6.75054297 L29,6.75054297 Z" id="Path"></path>
                <path d="M8.52530109,12.8788125 C8.78743057,12.8788125 9,12.6753174 9,12.4242513 L9,10.4545613 C9,10.2035518 8.78748979,10 8.52530109,10 L4.47469891,10 C4.21256943,10 4,10.2034951 4,10.4545613 L4,23.5454387 C4,23.7964482 4.21251021,24 4.47469891,24 L8.52530109,24 C8.78743057,24 9,23.7965049 9,23.5454387 L9,14.4242189 C9,14.1732094 8.78748979,13.9696576 8.52530109,13.9696576 C8.2631124,13.9696576 8.05060218,14.1731527 8.05060218,14.4242189 L8.05060218,23.0908774 L4.94939782,23.0908774 L4.94939782,10.9091226 L8.05066139,10.9091226 L8.05066139,12.4242513 C8.05066139,12.6752607 8.26317161,12.8788125 8.52530109,12.8788125 Z" id="Path"></path>
                <path d="M23.4147774,11.2451248 C22.4563021,10.4538242 21.2149653,10 20.0089863,10 C18.0184424,10 16.7575473,10.6388919 15.9596499,11.4260535 L15.9596499,10.4545613 C15.9596499,10.2035518 15.7489134,10 15.4887819,10 L11.4708681,10 C11.210854,10 11,10.2034951 11,10.4545613 L11,23.5454387 C11,23.7964482 11.2107953,24 11.4708681,24 L15.4887819,24 C15.7488547,24 15.9596499,23.7965049 15.9596499,23.5454387 L15.9596499,17.2423628 C15.9596499,16.0257579 17.0187361,15.2726728 18,15.2726728 C19.1822507,15.2726728 20.0403501,16.101055 20.0403501,17.2423628 L20.0403501,23.545382 C20.0403501,23.7963915 20.2510866,23.9999433 20.5112181,23.9999433 L24.5291319,23.9999433 C24.7892047,23.9999433 25,23.7964482 25,23.545382 L25,14.3332726 C25,13.185898 24.4369787,12.0891562 23.4147774,11.2451248 Z M24.0583813,23.0908207 L20.9820275,23.0908207 L20.9820275,17.2423628 C20.9820275,15.601134 19.6999883,14.3636069 18,14.3636069 C16.5658405,14.3636069 15.0179725,15.464261 15.0179725,17.2423628 L15.0179725,23.0908207 L11.9417362,23.0908207 L11.9417362,10.9090659 L15.0179725,10.9090659 L15.0179725,12.8787558 C15.0179725,13.0860499 15.1690943,13.2714578 15.3777164,13.3203896 C15.5926818,13.3707389 15.8211559,13.2652208 15.9151298,13.0717615 C16.6123576,11.6366928 17.9897803,10.9090659 20.009045,10.9090659 C21.9205333,10.9090659 24.0583813,12.3735051 24.0583813,14.3332726 L24.0583813,23.0908207 Z" id="Shape" fill-rule="nonzero"></path>
                <path d="M6.5,4 C5.12147983,4 4,5.12153904 4,6.5 C4,7.87846096 5.12153904,9 6.5,9 C7.87846096,9 9,7.87846096 9,6.5 C9,5.12153904 7.87846096,4 6.5,4 Z M6.5,8.05070936 C5.64497525,8.05070936 4.94934985,7.35508396 4.94934985,6.50005921 C4.94934985,5.64503446 5.64497525,4.94940906 6.5,4.94940906 C7.35502475,4.94940906 8.05065015,5.64503446 8.05065015,6.50005921 C8.05065015,7.35508396 7.35496554,8.05070936 6.5,8.05070936 Z" id="Shape" fill-rule="nonzero"></path>
            </g>
        </g>
    </g>
</svg>