<?xml version="1.0" encoding="UTF-8"?>
<svg width="29px" height="29px" viewBox="0 0 29 29" version="1.1" xmlns="http://www.w3.org/2000/svg" xmlns:xlink="http://www.w3.org/1999/xlink">
    <!-- Generator: Sketch 52 (66869) - http://www.bohemiancoding.com/sketch -->
    <title>location</title>
    <desc>Created with Sketch.</desc>
    <g id="Page-1" stroke="none" stroke-width="1" fill="none" fill-rule="evenodd">
        <g id="Artboard" transform="translate(-189.000000, -12.000000)" fill="#000000">
            <g id="location" transform="translate(189.000000, 12.000000)">
                <path d="M14.5,13 C16.43,13 18,11.4295 18,9.5 C18,7.5705 16.43,6 14.5,6 C12.57,6 11,7.5705 11,9.5 C11,11.4295 12.57,13 14.5,13 Z M14.5,7 C15.8785,7 17,8.1215 17,9.5 C17,10.8785 15.8785,12 14.5,12 C13.1215,12 12,10.8785 12,9.5 C12,8.1215 13.1215,7 14.5,7 Z" id="Shape" fill-rule="nonzero"></path>
                <path d="M14.5009612,26 L22.101418,15.4792995 C24.9521466,11.8369158 24.5399454,5.84984568 21.2190496,2.66756762 C19.4245868,0.947276147 17.0385754,0 14.5009612,0 C11.963347,0 9.57733571,0.947276147 7.78287287,2.66709279 C4.46197712,5.84937086 4.04977583,11.836441 6.88910949,15.4645799 L14.5009612,26 Z M8.48341689,3.33849553 C10.091101,1.79816279 12.2279089,0.949650273 14.5009612,0.949650273 C16.7740136,0.949650273 18.9108215,1.79816279 20.5185056,3.33849553 C23.5158828,6.21071279 23.8849813,11.6180214 21.2978237,14.923754 L14.5009612,24.3314645 L7.69319927,14.9095093 C5.1169412,11.6180214 5.48653514,6.21071279 8.48341689,3.33849553 Z" id="Shape" fill-rule="nonzero"></path>
                <path d="M20.35655,21.0036758 C20.0907167,20.9721479 19.8509833,21.1575508 19.82005,21.4158914 C19.7891167,21.674232 19.9785833,21.9081032 20.24345,21.9382194 C25.3261833,22.5207799 28.0333333,24.0905873 28.0333333,25.0001909 C28.0333333,26.2773064 22.8848667,28.0588685 14.5,28.0588685 C6.11513333,28.0588685 0.966666667,26.2773064 0.966666667,25.0001909 C0.966666667,24.0905873 3.67381667,22.5207799 8.75655,21.9382194 C9.02141667,21.9081032 9.21088333,21.6737615 9.17995,21.4158914 C9.14853333,21.1575508 8.9088,20.9712068 8.64345,21.0036758 C3.55443333,21.5871774 0,23.230393 0,25.0001909 C0,26.9878608 4.98075,29 14.5,29 C24.01925,29 29,26.9878608 29,25.0001909 C29,23.230393 25.4455667,21.5871774 20.35655,21.0036758 Z" id="Path"></path>
            </g>
        </g>
    </g>
</svg>