<?xml version="1.0" encoding="UTF-8"?>
<svg width="29px" height="29px" viewBox="0 0 29 29" version="1.1" xmlns="http://www.w3.org/2000/svg" xmlns:xlink="http://www.w3.org/1999/xlink">
    <!-- Generator: Sketch 52 (66869) - http://www.bohemiancoding.com/sketch -->
    <title>phone</title>
    <desc>Created with Sketch.</desc>
    <g id="Page-1" stroke="none" stroke-width="1" fill="none" fill-rule="evenodd">
        <g id="Artboard" transform="translate(-77.000000, -15.000000)" fill="#000000">
            <g id="phone" transform="translate(77.000000, 15.000000)">
                <path d="M28.2390273,22.372516 L22.3693217,18.4578176 C21.6244378,17.9650255 20.6259547,18.1271751 20.0752628,18.8304276 L18.3654787,21.028934 C18.1457456,21.3186851 17.7463184,21.4027333 17.4284416,21.2261415 L17.1032026,21.0468311 C16.025038,20.4591166 14.6835334,19.7274327 11.9806463,17.023391 C9.27775919,14.3193494 8.5446548,12.9767301 7.956982,11.9004713 L7.77864707,11.5752092 C7.59963255,11.2573665 7.68208909,10.8562119 7.97193292,10.6347075 L10.1688109,8.92531181 C10.8717303,8.37452416 11.034095,7.37625341 10.5419041,6.63109012 L6.62748345,0.760968144 C6.12306005,0.0021555104 5.11104186,-0.225635534 4.33013984,0.243822439 L1.87564176,1.71834751 C1.10442387,2.17177742 0.53861112,2.90612319 0.296848071,3.76750409 C-0.587011358,6.98818175 0.0779078168,12.5465777 8.26534457,20.7355582 C14.7782791,27.2484451 19.6268487,28.9999215 22.9594297,28.9999215 C23.7264002,29.0032064 24.4903692,28.9034133 25.2307791,28.7032041 C26.0922688,28.4617071 26.8266758,27.8957976 27.2797903,27.1242984 L28.7556832,24.6710987 C29.2257875,23.8899714 28.9981259,22.8772584 28.2390273,22.372516 Z M27.9229627,24.1751916 L26.4504678,26.6298638 C26.1251155,27.1867116 25.5969066,27.5961351 24.9765003,27.7723871 C22.0034774,28.5886856 16.8093946,27.9125619 8.94912228,20.051732 C1.08885,12.190902 0.412830907,6.99690373 1.22907144,4.02321682 C1.40553751,3.4020303 1.81544169,2.87310425 2.3729295,2.5472192 L4.82742758,1.07461976 C5.16625829,0.870729219 5.60549798,0.969559496 5.8243816,1.29884272 L7.95075246,4.49148543 L9.73546099,7.16845497 C9.94919108,7.49167812 9.8789671,7.92488888 9.57405909,8.16406381 L7.3766714,9.87345946 C6.70795787,10.3848283 6.51699394,11.3100949 6.92871035,12.0444406 L7.1031943,12.3614904 C7.72082555,13.4943289 8.48870214,14.903609 11.2921115,17.7067642 C14.0955208,20.5098627 15.5042479,21.2778504 16.6364963,21.8954688 L16.9539767,22.0704182 C17.6882137,22.4821072 18.6134713,22.2911864 19.1248039,21.6224254 L20.8340782,19.4248818 C21.0732928,19.1201221 21.506303,19.0499498 21.8296165,19.2634685 L27.6988123,23.1781669 C28.0282987,23.3968961 28.127122,23.8363935 27.9229627,24.1751916 Z" id="Shape" fill-rule="nonzero"></path>
                <path d="M16.4999824,4.99996484 C21.1922468,5.00517971 24.9947617,8.80775316 25.0000352,13.5000176 C25.0000352,13.776171 25.2238642,14 25.5000176,14 C25.776171,14 26,13.776171 26,13.5000176 C25.9941992,8.25568069 21.7443193,4.00574221 16.4999824,4 C16.223829,4 16,4.223829 16,4.49998242 C16,4.77613584 16.223829,4.99996484 16.4999824,4.99996484 Z" id="Path"></path>
                <path d="M16.4999833,7.99996652 C19.536094,8.00354076 21.9964592,10.463906 22.0000335,13.5000167 C22.0000335,13.7761706 22.2239215,14 22.5000167,14 C22.7761706,14 23,13.7761706 23,13.5000167 C22.9958398,9.91183266 20.0881088,7.00410159 16.4999833,7 C16.2238294,7 16,7.22382937 16,7.49998326 C16,7.77613714 16.2238294,7.99996652 16.4999833,7.99996652 Z" id="Path"></path>
                <path d="M16.4999854,10.9999707 C17.8799988,11.0016113 18.9983301,12.1199426 19.0000293,13.5000146 C19.0000293,13.7761697 19.2239182,14 19.5000146,14 C19.7761111,14 20,13.7761697 20,13.5000146 C19.9977734,11.5679255 18.4320745,10.002168 16.4999854,10 C16.2238303,10 16,10.2238303 16,10.4999854 C16,10.7761404 16.2238303,10.9999707 16.4999854,10.9999707 Z" id="Path"></path>
            </g>
        </g>
    </g>
</svg>