<?xml version="1.0" encoding="UTF-8"?>
<svg width="1000px" height="1000px" viewBox="0 0 1000 1000" version="1.1" xmlns="http://www.w3.org/2000/svg" xmlns:xlink="http://www.w3.org/1999/xlink">
    <!-- Generator: Sketch 52 (66869) - http://www.bohemiancoding.com/sketch -->
    <title>right</title>
    <desc>Created with Sketch.</desc>
    <g id="right" stroke="none" stroke-width="1" fill="none" fill-rule="evenodd">
        <path d="M591.86,587.542 C595.481,591.156 597.295,595.443 597.295,600.389 C597.295,605.337 595.482,609.625 591.86,613.236 L562.734,642.366 C559.124,645.983 554.843,647.794 549.894,647.787 C544.943,647.787 540.662,645.976 537.04,642.366 L407.424,512.74 C403.807,509.12 402,504.842 402,499.892 C402,494.943 403.807,490.659 407.424,487.045 L537.04,357.424 C540.661,353.809 544.942,352 549.894,352 C554.843,352 559.123,353.809 562.734,357.424 L591.86,386.554 C595.481,390.169 597.295,394.452 597.295,399.401 C597.295,404.347 595.482,408.634 591.86,412.246 L504.214,499.896 L591.86,587.542 Z" id="Path" fill="#ECECEC" transform="translate(499.647500, 499.893510) scale(-1, 1) translate(-499.647500, -499.893510) "></path>
    </g>
</svg>